<svg xmlns="http://www.w3.org/2000/svg" xmlns:xlink="http://www.w3.org/1999/xlink" width="300" zoomAndPan="magnify" viewBox="0 0 224.87999 225" height="300" preserveAspectRatio="xMidYMid meet" version="1.0"><defs><clipPath id="7e8ad7c695"><path d="M 81.40625 78 L 143.625 78 L 143.625 146.933594 L 81.40625 146.933594 Z M 81.40625 78 " clip-rule="nonzero"/></clipPath></defs><g clip-path="url(#7e8ad7c695)"><path fill="#010101" d="M 142.007812 125.230469 C 141.914062 125.425781 141.867188 125.527344 141.863281 125.53125 C 141.371094 127.039062 141.351562 128.554688 141.800781 130.078125 C 142.074219 131.007812 142.546875 131.695312 143.15625 132.429688 C 143.625 132.992188 143.613281 133.679688 143.03125 134.171875 C 142.886719 134.289062 142.59375 134.425781 142.148438 134.582031 C 141.472656 134.816406 140.847656 135.03125 140.269531 135.226562 C 135.414062 136.859375 129.289062 138.859375 121.886719 141.21875 C 119.726562 141.90625 116.898438 142.789062 113.402344 143.859375 C 110.558594 144.730469 107.953125 145.488281 105.582031 146.136719 C 103.726562 146.640625 102.003906 146.90625 100.148438 146.574219 C 98.78125 146.332031 97.640625 145.648438 96.722656 144.523438 C 96.105469 143.769531 95.765625 142.984375 95.699219 142.171875 C 95.695312 142.125 95.6875 142.082031 95.671875 142.039062 C 95.480469 141.546875 95.363281 141.226562 95.308594 141.070312 C 92.9375 134.128906 90.867188 127.945312 89.101562 122.527344 C 87.320312 117.0625 85.285156 110.601562 83.503906 104.464844 C 83.105469 103.09375 82.71875 101.691406 82.34375 100.261719 C 82.074219 99.242188 81.894531 98.195312 81.578125 97.125 C 81.484375 96.8125 81.433594 96.554688 81.433594 96.359375 C 81.40625 94.480469 81.796875 92.9375 83.101562 91.558594 C 83.714844 90.910156 84.40625 90.34375 85.171875 89.867188 C 85.628906 89.582031 86.117188 89.273438 86.640625 88.941406 C 87.121094 88.632812 87.734375 88.566406 88.324219 88.382812 C 94.386719 86.476562 100.824219 84.609375 107.636719 82.777344 C 114.8125 80.84375 120.855469 79.289062 125.761719 78.105469 C 126.089844 78.023438 126.3125 77.992188 126.429688 78.007812 C 127.242188 78.117188 127.730469 79.203125 128.019531 79.882812 C 128.492188 80.980469 128.949219 82.136719 129.398438 83.355469 C 130.03125 85.074219 130.835938 87.375 131.816406 90.261719 C 134.660156 98.640625 137.527344 107.003906 140.410156 115.359375 C 141.339844 118.046875 142.160156 120.480469 142.871094 122.65625 C 142.992188 123.035156 143.183594 123.683594 143.203125 124.027344 C 143.234375 124.574219 142.910156 124.898438 142.410156 125.046875 C 142.246094 125.097656 142.132812 125.136719 142.078125 125.164062 C 142.046875 125.175781 142.023438 125.199219 142.007812 125.230469 Z M 142.007812 125.230469 " fill-opacity="1" fill-rule="nonzero"/></g><path fill="#5f8697" d="M 102.574219 134.921875 C 102.3125 134.828125 102.039062 134.796875 101.757812 134.824219 C 101.699219 134.832031 101.636719 134.832031 101.578125 134.820312 C 100.886719 134.703125 100.121094 134.617188 99.308594 134.5625 C 98.9375 134.535156 98.574219 134.390625 98.226562 134.121094 C 98.195312 134.101562 98.167969 134.074219 98.148438 134.046875 C 98.007812 133.863281 97.890625 133.644531 97.800781 133.398438 C 97.742188 133.234375 97.683594 133.070312 97.625 132.910156 C 97.480469 132.515625 97.332031 132.109375 97.203125 131.71875 C 95.929688 127.886719 95.019531 125.207031 94.496094 123.753906 C 92.796875 119.050781 91.378906 115.0625 90.28125 111.902344 C 89.609375 109.972656 89.253906 108.953125 89.226562 108.875 C 88.929688 108.066406 88.574219 107.046875 88.167969 105.84375 C 87.882812 105 87.472656 103.832031 86.945312 102.371094 C 86.859375 102.128906 86.757812 101.808594 86.652344 101.464844 C 86.546875 101.132812 86.4375 100.785156 86.328125 100.46875 C 86.296875 100.378906 86.25 100.289062 86.203125 100.203125 C 86.152344 100.109375 86.105469 100.023438 86.082031 99.933594 C 86.035156 99.78125 85.941406 99.507812 85.796875 99.128906 C 85.667969 98.785156 85.554688 98.371094 85.441406 97.972656 C 85.328125 97.570312 85.222656 97.1875 85.117188 96.933594 C 84.910156 96.433594 84.765625 96.046875 84.683594 95.777344 C 84.585938 95.445312 84.46875 95.101562 84.34375 94.757812 C 84.101562 94.097656 83.875 93.421875 83.667969 92.746094 L 83.808594 92.703125 C 84.011719 93.378906 84.238281 94.050781 84.480469 94.707031 C 84.609375 95.054688 84.722656 95.402344 84.824219 95.734375 C 84.902344 96 85.046875 96.382812 85.25 96.878906 C 85.359375 97.140625 85.46875 97.523438 85.582031 97.929688 C 85.691406 98.328125 85.808594 98.738281 85.9375 99.078125 C 86.078125 99.460938 86.175781 99.734375 86.21875 99.894531 C 86.242188 99.96875 86.285156 100.050781 86.332031 100.136719 C 86.382812 100.226562 86.429688 100.320312 86.464844 100.421875 C 86.574219 100.738281 86.683594 101.085938 86.789062 101.421875 C 86.898438 101.761719 86.996094 102.082031 87.082031 102.320312 C 87.609375 103.78125 88.019531 104.953125 88.304688 105.796875 C 88.710938 107 89.066406 108.019531 89.363281 108.824219 C 89.394531 108.902344 89.738281 109.894531 90.417969 111.855469 C 91.519531 115.015625 92.933594 119 94.632812 123.703125 C 95.15625 125.160156 96.070312 127.839844 97.34375 131.675781 C 97.46875 132.058594 97.609375 132.449219 97.761719 132.859375 C 97.820312 133.023438 97.878906 133.183594 97.9375 133.347656 C 98.023438 133.582031 98.132812 133.785156 98.261719 133.957031 C 98.277344 133.976562 98.292969 133.992188 98.3125 134.007812 C 98.636719 134.253906 98.976562 134.394531 99.320312 134.414062 C 100.136719 134.472656 100.90625 134.558594 101.601562 134.675781 C 101.648438 134.683594 101.695312 134.6875 101.742188 134.679688 C 102.046875 134.648438 102.339844 134.683594 102.625 134.785156 Z M 102.574219 134.921875 " fill-opacity="1" fill-rule="nonzero"/><path fill="#e1dbcb" d="M 104.5 144.242188 L 104.480469 144.097656 C 105.121094 144.011719 105.753906 143.878906 106.359375 143.703125 C 107.457031 143.378906 107.460938 143.378906 107.464844 143.378906 L 107.800781 143.289062 C 108.621094 143.066406 109.265625 142.894531 110 142.640625 C 110.671875 142.410156 111.449219 142.171875 112.3125 141.9375 C 113.097656 141.726562 113.910156 141.453125 114.695312 141.1875 C 115.394531 140.953125 116.058594 140.730469 116.6875 140.554688 C 117.878906 140.21875 118.972656 139.875 119.9375 139.53125 C 120.152344 139.453125 120.398438 139.394531 120.640625 139.335938 C 120.84375 139.289062 121.058594 139.238281 121.242188 139.179688 C 122.105469 138.894531 122.886719 138.65625 123.710938 138.40625 C 124.296875 138.226562 124.90625 138.039062 125.542969 137.835938 C 126.035156 137.679688 126.441406 137.558594 126.796875 137.453125 C 127.382812 137.277344 127.890625 137.125 128.542969 136.886719 C 128.902344 136.757812 129.277344 136.640625 129.660156 136.542969 C 130.492188 136.328125 131.652344 135.933594 133.109375 135.375 C 133.320312 135.296875 134.132812 135.019531 135.515625 134.550781 C 136.171875 134.332031 136.871094 134.054688 137.59375 133.734375 C 137.9375 133.582031 138.328125 133.4375 138.75 133.308594 C 139.660156 133.027344 140.574219 132.710938 141.460938 132.367188 L 141.515625 132.503906 C 140.621094 132.847656 139.707031 133.164062 138.792969 133.445312 C 138.375 133.574219 137.992188 133.714844 137.652344 133.867188 C 136.925781 134.191406 136.222656 134.46875 135.5625 134.691406 C 134.179688 135.15625 133.371094 135.433594 133.164062 135.511719 C 131.699219 136.074219 130.535156 136.46875 129.699219 136.683594 C 129.320312 136.78125 128.949219 136.894531 128.59375 137.023438 C 127.9375 137.261719 127.425781 137.414062 126.839844 137.589844 C 126.484375 137.699219 126.078125 137.820312 125.589844 137.976562 C 124.949219 138.179688 124.339844 138.363281 123.753906 138.542969 C 122.929688 138.796875 122.152344 139.035156 121.289062 139.316406 C 121.097656 139.378906 120.882812 139.429688 120.671875 139.480469 C 120.4375 139.535156 120.195312 139.59375 119.984375 139.667969 C 119.019531 140.011719 117.921875 140.355469 116.726562 140.695312 C 116.101562 140.871094 115.441406 141.09375 114.742188 141.328125 C 113.953125 141.59375 113.140625 141.867188 112.351562 142.078125 C 111.492188 142.3125 110.714844 142.546875 110.046875 142.777344 C 109.308594 143.035156 108.660156 143.207031 107.835938 143.429688 L 107.496094 143.519531 C 107.488281 143.523438 107.367188 143.558594 106.398438 143.84375 C 105.789062 144.023438 105.148438 144.15625 104.5 144.242188 Z M 104.5 144.242188 " fill-opacity="1" fill-rule="nonzero"/><path fill="#e1dbcb" d="M 102.875 144.34375 C 102.308594 144.34375 101.796875 144.257812 101.277344 144.082031 C 100.6875 143.882812 100.007812 143.632812 99.472656 143.300781 C 98.59375 142.753906 98.140625 141.652344 97.847656 140.75 C 97.6875 140.269531 97.71875 139.75 97.933594 139.210938 L 98.070312 139.265625 C 97.867188 139.773438 97.839844 140.257812 97.988281 140.707031 C 98.273438 141.582031 98.710938 142.65625 99.550781 143.175781 C 100.074219 143.5 100.742188 143.746094 101.324219 143.945312 C 101.875 144.132812 102.417969 144.210938 103.03125 144.195312 C 103.230469 144.1875 103.4375 144.1875 103.644531 144.1875 L 103.644531 144.335938 C 103.441406 144.332031 103.234375 144.335938 103.035156 144.339844 C 102.980469 144.339844 102.925781 144.34375 102.875 144.34375 Z M 102.875 144.34375 " fill-opacity="1" fill-rule="nonzero"/><path fill="#90bdd1" d="M 90.136719 89.148438 C 91.882812 88.660156 93.84375 88.019531 95.589844 87.503906 C 99.039062 86.488281 102.785156 85.445312 106.492188 84.417969 C 107.234375 84.214844 107.746094 84.074219 108.035156 84.003906 C 109.566406 83.617188 111.046875 83.167969 112.582031 82.785156 C 113.398438 82.582031 114.402344 82.316406 115.589844 81.992188 C 116.476562 81.75 117.554688 81.476562 118.824219 81.164062 C 119.75 80.941406 120.78125 80.609375 121.71875 80.410156 C 122.414062 80.261719 123.070312 80.097656 123.691406 79.921875 C 124.59375 79.660156 125.414062 79.539062 126.226562 79.277344 C 126.25 79.269531 126.277344 79.28125 126.292969 79.304688 C 126.703125 79.984375 126.882812 80.515625 127.382812 81.691406 C 127.578125 82.148438 127.796875 82.71875 128.042969 83.398438 C 129.746094 88.101562 131.351562 92.847656 133.203125 98.289062 C 134.65625 102.558594 136.199219 107.0625 137.828125 111.796875 C 137.964844 112.1875 138.144531 112.703125 138.371094 113.339844 C 138.84375 114.652344 139.230469 115.9375 139.753906 117.40625 C 140.378906 119.152344 140.9375 120.949219 141.488281 122.550781 C 141.605469 122.894531 141.734375 123.320312 141.875 123.832031 C 141.878906 123.855469 141.867188 123.878906 141.84375 123.886719 C 140.921875 124.191406 140.035156 124.371094 139.058594 124.65625 C 138.691406 124.761719 138.101562 124.925781 137.292969 125.148438 C 130.875 126.898438 127.296875 127.875 126.566406 128.070312 C 125.960938 128.230469 125.292969 128.417969 124.558594 128.632812 C 123.597656 128.910156 122.808594 129.097656 121.875 129.355469 C 120.929688 129.617188 119.121094 130.140625 117.609375 130.535156 C 117.066406 130.675781 116.460938 130.847656 115.789062 131.050781 C 114.796875 131.351562 112.675781 131.882812 111.132812 132.363281 C 110.6875 132.503906 110.164062 132.648438 109.5625 132.796875 C 108.921875 132.957031 107.921875 133.246094 106.5625 133.667969 C 106.042969 133.828125 105.535156 133.953125 105.066406 134.097656 C 105.03125 134.109375 104.996094 134.09375 104.980469 134.058594 C 104.527344 132.972656 104.207031 132.015625 103.796875 130.882812 C 103.523438 130.121094 103.253906 129.421875 102.96875 128.59375 C 102.511719 127.28125 102.054688 125.972656 101.601562 124.671875 C 100.101562 120.359375 98.738281 116.316406 97.523438 112.542969 C 97.136719 111.34375 96.871094 110.464844 96.476562 109.316406 C 96.3125 108.835938 96.097656 108.15625 95.828125 107.265625 C 95.679688 106.777344 95.480469 106.238281 95.363281 105.855469 C 94.617188 103.46875 94.15625 102.015625 93.984375 101.496094 C 93.609375 100.382812 93.242188 99.070312 92.792969 97.75 C 92.539062 97 92.351562 96.25 92.09375 95.492188 C 91.703125 94.351562 91.417969 93.273438 91.015625 92.136719 C 90.882812 91.761719 90.753906 91.359375 90.632812 90.929688 C 90.464844 90.335938 90.277344 89.871094 90.066406 89.28125 C 90.046875 89.226562 90.074219 89.167969 90.128906 89.148438 C 90.132812 89.148438 90.132812 89.148438 90.136719 89.148438 Z M 90.136719 89.148438 " fill-opacity="1" fill-rule="nonzero"/><path fill="#6d96a8" d="M 102.601562 134.855469 C 102.328125 134.757812 102.042969 134.722656 101.75 134.753906 C 101.699219 134.757812 101.644531 134.757812 101.589844 134.75 C 100.894531 134.628906 100.132812 134.542969 99.316406 134.488281 C 98.957031 134.464844 98.605469 134.324219 98.269531 134.066406 C 98.246094 134.046875 98.222656 134.023438 98.207031 134 C 98.066406 133.824219 97.957031 133.613281 97.867188 133.371094 C 97.664062 132.804688 97.453125 132.238281 97.273438 131.699219 C 95.996094 127.847656 95.089844 125.191406 94.5625 123.730469 C 92.859375 119 91.453125 115.050781 90.351562 111.878906 C 89.675781 109.9375 89.324219 108.929688 89.296875 108.847656 C 88.996094 108.039062 88.644531 107.027344 88.234375 105.820312 C 87.949219 104.972656 87.542969 103.816406 87.015625 102.347656 C 86.84375 101.871094 86.617188 101.085938 86.398438 100.445312 C 86.328125 100.253906 86.199219 100.074219 86.152344 99.914062 C 86.105469 99.757812 86.007812 99.488281 85.867188 99.105469 C 85.605469 98.40625 85.394531 97.417969 85.183594 96.90625 C 84.976562 96.40625 84.832031 96.023438 84.753906 95.757812 C 84.652344 95.421875 84.539062 95.082031 84.410156 94.730469 C 84.167969 94.070312 83.945312 93.402344 83.738281 92.726562 C 84.523438 91.863281 85.289062 91.34375 86.171875 90.726562 C 86.386719 90.574219 86.757812 90.355469 87.277344 90.070312 C 87.292969 90.0625 87.308594 90.054688 87.324219 90.050781 L 89.125 89.507812 C 89.148438 89.5 89.171875 89.515625 89.179688 89.539062 C 89.441406 90.441406 89.671875 91.164062 89.863281 91.707031 C 90.214844 92.703125 90.421875 93.542969 90.730469 94.425781 C 90.917969 94.960938 91.121094 95.609375 91.339844 96.371094 C 91.550781 97.109375 91.890625 98.0625 92.15625 98.960938 C 92.484375 100.09375 92.992188 101.566406 93.441406 103.019531 C 93.96875 104.742188 94.453125 106.242188 94.9375 107.742188 C 96.921875 113.890625 98.105469 117.53125 98.492188 118.65625 C 98.992188 120.125 99.40625 121.34375 99.734375 122.320312 C 100.082031 123.359375 100.386719 124.226562 100.648438 124.925781 C 101.0625 126.046875 101.441406 127.214844 101.878906 128.394531 C 102.671875 130.546875 103.417969 132.519531 104.117188 134.320312 C 104.128906 134.347656 104.113281 134.378906 104.085938 134.386719 C 104.085938 134.390625 104.085938 134.390625 104.085938 134.390625 Z M 102.601562 134.855469 " fill-opacity="1" fill-rule="nonzero"/><path fill="#507685" d="M 83.738281 92.726562 C 83.945312 93.402344 84.167969 94.070312 84.410156 94.730469 C 84.539062 95.082031 84.652344 95.421875 84.753906 95.757812 C 84.832031 96.023438 84.976562 96.40625 85.183594 96.90625 C 85.394531 97.417969 85.605469 98.40625 85.867188 99.105469 C 86.007812 99.488281 86.105469 99.757812 86.152344 99.914062 C 86.199219 100.074219 86.328125 100.253906 86.398438 100.445312 C 86.617188 101.085938 86.84375 101.871094 87.015625 102.347656 C 87.542969 103.816406 87.949219 104.972656 88.234375 105.820312 C 88.644531 107.027344 88.996094 108.039062 89.296875 108.847656 C 89.324219 108.929688 89.675781 109.9375 90.351562 111.878906 C 91.453125 115.050781 92.859375 119 94.5625 123.730469 C 95.089844 125.191406 95.996094 127.847656 97.273438 131.699219 C 97.453125 132.238281 97.664062 132.804688 97.867188 133.371094 C 97.957031 133.613281 98.066406 133.824219 98.207031 134 C 98.222656 134.023438 98.246094 134.046875 98.269531 134.066406 C 98.605469 134.324219 98.957031 134.464844 99.3125 134.488281 C 100.132812 134.542969 100.894531 134.628906 101.589844 134.75 C 101.644531 134.757812 101.699219 134.757812 101.75 134.753906 C 102.042969 134.722656 102.328125 134.757812 102.601562 134.855469 C 102.441406 134.925781 102.148438 135.023438 101.71875 135.15625 C 100.953125 135.390625 100.203125 135.847656 99.324219 136.382812 C 98.386719 136.953125 97.710938 137.570312 97.042969 138.359375 C 96.734375 138.722656 96.484375 139.132812 96.289062 139.578125 C 96.277344 139.609375 96.242188 139.621094 96.214844 139.609375 C 96.199219 139.605469 96.1875 139.59375 96.183594 139.578125 C 95.902344 138.886719 95.699219 138.140625 95.417969 137.402344 C 95.40625 137.378906 95.320312 137.121094 95.152344 136.625 C 94.109375 133.535156 93.492188 131.703125 93.296875 131.125 C 92.546875 128.890625 91.324219 125.183594 89.628906 119.992188 C 89.34375 119.125 89.085938 118.296875 88.847656 117.511719 C 88.519531 116.421875 88.117188 115.375 87.792969 114.214844 C 87.527344 113.261719 87.207031 112.230469 86.828125 111.121094 C 86.640625 110.578125 86.488281 110.085938 86.367188 109.644531 C 85.917969 108.023438 85.460938 106.59375 84.867188 104.640625 C 84.640625 103.882812 84.46875 103.050781 84.238281 102.335938 C 83.976562 101.519531 83.761719 100.738281 83.59375 99.980469 C 83.402344 99.113281 83.105469 98.164062 82.949219 97.320312 C 82.917969 97.15625 82.878906 96.914062 82.835938 96.59375 C 82.804688 96.347656 82.703125 96.117188 82.71875 95.855469 C 82.773438 95.078125 82.851562 94.507812 82.949219 94.148438 C 83.078125 93.683594 83.34375 93.207031 83.738281 92.726562 Z M 83.738281 92.726562 " fill-opacity="1" fill-rule="nonzero"/><path fill="#f9f3e2" d="M 141.488281 132.4375 C 140.59375 132.78125 139.6875 133.09375 138.769531 133.375 C 138.351562 133.503906 137.96875 133.648438 137.625 133.800781 C 136.894531 134.125 136.199219 134.398438 135.539062 134.621094 C 134.148438 135.089844 133.347656 135.363281 133.136719 135.445312 C 131.667969 136.007812 130.515625 136.398438 129.679688 136.613281 C 129.296875 136.710938 128.925781 136.828125 128.566406 136.957031 C 127.519531 137.335938 126.875 137.488281 125.566406 137.90625 C 124.054688 138.386719 122.765625 138.753906 121.265625 139.246094 C 120.863281 139.378906 120.359375 139.457031 119.960938 139.597656 C 118.988281 139.945312 117.90625 140.285156 116.707031 140.625 C 115.355469 141.003906 113.800781 141.609375 112.332031 142.007812 C 111.46875 142.242188 110.699219 142.476562 110.023438 142.710938 C 109.1875 143 108.453125 143.1875 107.476562 143.449219 C 107.476562 143.449219 107.109375 143.558594 106.378906 143.773438 C 105.769531 143.953125 105.140625 144.085938 104.488281 144.171875 C 104.335938 143.554688 104.199219 142.902344 104.085938 142.210938 C 103.78125 140.371094 103.445312 138.296875 103.183594 136.105469 C 103.179688 136.066406 103.203125 136.027344 103.242188 136.015625 L 104.578125 135.574219 C 104.609375 135.566406 104.640625 135.5625 104.675781 135.566406 C 104.984375 135.613281 105.058594 135.570312 105.277344 135.402344 C 105.332031 135.359375 105.398438 135.324219 105.46875 135.304688 C 106.40625 135.007812 107.265625 134.75 108.050781 134.535156 C 109.382812 134.171875 110.25 133.925781 110.648438 133.804688 C 112.019531 133.375 113.34375 133.058594 114.953125 132.59375 C 115.851562 132.332031 116.957031 132.03125 118.265625 131.691406 C 118.648438 131.589844 119.09375 131.441406 119.53125 131.324219 C 120.601562 131.035156 122.226562 130.589844 124.410156 129.992188 C 134.769531 127.148438 140.117188 125.6875 140.460938 125.601562 C 140.476562 125.601562 140.492188 125.609375 140.496094 125.625 C 140.496094 125.628906 140.496094 125.632812 140.496094 125.636719 C 140.328125 126.253906 140.226562 126.898438 140.195312 127.578125 C 140.195312 127.609375 140.171875 127.636719 140.140625 127.648438 C 139.308594 127.878906 138.621094 128.074219 138.074219 128.234375 C 136.871094 128.585938 132.324219 129.910156 124.433594 132.214844 C 123.859375 132.378906 123.230469 132.597656 122.6875 132.746094 C 122.132812 132.898438 120.820312 133.285156 118.753906 133.90625 C 114.148438 135.289062 109.96875 136.574219 106.207031 137.757812 C 106.089844 137.792969 106.011719 137.902344 106.011719 138.023438 L 106.011719 138.035156 C 106.007812 138.125 106.082031 138.195312 106.167969 138.195312 C 106.183594 138.195312 106.199219 138.195312 106.214844 138.191406 L 140.160156 128.230469 C 140.179688 128.222656 140.199219 128.234375 140.203125 128.253906 C 140.203125 128.253906 140.203125 128.257812 140.207031 128.261719 L 140.253906 129.167969 C 140.253906 129.191406 140.238281 129.210938 140.214844 129.21875 C 138.054688 129.859375 136.46875 130.324219 135.449219 130.617188 C 135.179688 130.695312 134.667969 130.851562 133.914062 131.078125 C 131.101562 131.925781 128.308594 132.796875 125.527344 133.6875 C 125.429688 133.71875 125.378906 133.820312 125.40625 133.917969 L 125.410156 133.925781 C 125.4375 134.011719 125.527344 134.0625 125.617188 134.039062 L 140.304688 129.785156 C 140.324219 129.78125 140.34375 129.789062 140.351562 129.8125 L 140.8125 131.199219 C 140.820312 131.226562 140.804688 131.253906 140.78125 131.261719 C 140.777344 131.261719 140.777344 131.261719 140.777344 131.265625 C 139.535156 131.574219 138.445312 131.855469 137.503906 132.105469 C 128.621094 134.476562 121.101562 136.285156 113.320312 138.660156 C 112.113281 139.027344 110.554688 139.515625 108.648438 140.128906 C 108.109375 140.300781 107.765625 140.421875 107.617188 140.488281 C 107.535156 140.527344 107.496094 140.582031 107.492188 140.65625 C 107.488281 140.753906 107.5625 140.835938 107.660156 140.839844 C 107.679688 140.839844 107.699219 140.835938 107.714844 140.832031 C 108.8125 140.507812 109.9375 140.175781 111.089844 139.832031 C 113.21875 139.203125 116.730469 138.214844 121.632812 136.867188 C 122.847656 136.535156 126.464844 135.585938 132.480469 134.027344 C 133.296875 133.816406 133.96875 133.636719 134.496094 133.488281 C 136.039062 133.0625 137.191406 132.796875 138.78125 132.359375 C 139.457031 132.171875 140.214844 131.972656 141.046875 131.757812 C 141.066406 131.753906 141.082031 131.761719 141.089844 131.777344 Z M 141.488281 132.4375 " fill-opacity="1" fill-rule="nonzero"/><path fill="#f9f3e2" d="M 103.644531 144.261719 C 103.4375 144.261719 103.234375 144.261719 103.03125 144.265625 C 102.421875 144.285156 101.875 144.207031 101.300781 144.011719 C 100.644531 143.789062 100.015625 143.546875 99.511719 143.238281 C 98.675781 142.71875 98.226562 141.671875 97.917969 140.730469 C 97.761719 140.261719 97.792969 139.765625 98.003906 139.238281 C 98.109375 139.085938 98.195312 138.96875 98.265625 138.894531 C 99.414062 137.679688 100.78125 136.855469 102.355469 136.328125 C 102.371094 136.324219 102.386719 136.332031 102.394531 136.347656 C 102.394531 136.351562 102.394531 136.351562 102.394531 136.355469 C 102.421875 136.566406 102.425781 136.808594 102.453125 137.003906 C 102.867188 139.976562 103.09375 141.804688 103.644531 144.261719 Z M 103.644531 144.261719 " fill-opacity="1" fill-rule="nonzero"/><path fill="#c8c2b3" d="M 104.488281 144.171875 C 105.140625 144.085938 105.769531 143.953125 106.378906 143.773438 C 107.109375 143.558594 107.476562 143.449219 107.476562 143.449219 C 108.453125 143.1875 109.1875 143 110.023438 142.710938 C 110.699219 142.476562 111.46875 142.242188 112.332031 142.007812 C 113.800781 141.609375 115.355469 141.003906 116.707031 140.625 C 117.90625 140.285156 118.988281 139.945312 119.960938 139.597656 C 120.359375 139.457031 120.863281 139.378906 121.265625 139.246094 C 122.765625 138.753906 124.054688 138.386719 125.566406 137.90625 C 126.875 137.488281 127.519531 137.335938 128.566406 136.957031 C 128.925781 136.828125 129.296875 136.710938 129.679688 136.613281 C 130.515625 136.398438 131.667969 136.007812 133.136719 135.445312 C 133.347656 135.363281 134.148438 135.089844 135.539062 134.621094 C 136.199219 134.398438 136.894531 134.125 137.625 133.800781 C 137.96875 133.648438 138.351562 133.503906 138.769531 133.375 C 139.6875 133.09375 140.59375 132.78125 141.488281 132.4375 L 142.066406 133.144531 C 142.089844 133.171875 142.085938 133.214844 142.054688 133.238281 C 142.050781 133.242188 142.042969 133.246094 142.035156 133.25 C 141.148438 133.578125 140.425781 133.832031 139.867188 134.007812 C 138.347656 134.496094 137.121094 134.949219 135.484375 135.460938 C 134.480469 135.773438 133.328125 136.183594 132.523438 136.445312 C 126.269531 138.46875 122.703125 139.613281 121.832031 139.882812 C 120.558594 140.277344 119.578125 140.621094 118.519531 140.945312 C 116.757812 141.476562 115.585938 141.847656 114.375 142.226562 C 113.109375 142.625 111.710938 143.007812 110.320312 143.453125 C 109.90625 143.582031 109.363281 143.742188 108.695312 143.925781 C 107.816406 144.167969 106.273438 144.640625 104.804688 145 C 104.753906 145.011719 104.703125 144.980469 104.691406 144.929688 Z M 104.488281 144.171875 " fill-opacity="1" fill-rule="nonzero"/><path fill="#c8c2b3" d="M 98.003906 139.238281 C 97.792969 139.765625 97.761719 140.261719 97.917969 140.726562 C 98.226562 141.671875 98.675781 142.71875 99.511719 143.238281 C 100.015625 143.546875 100.644531 143.789062 101.300781 144.011719 C 101.875 144.207031 102.421875 144.285156 103.03125 144.265625 C 103.234375 144.261719 103.4375 144.261719 103.644531 144.261719 L 103.90625 145.152344 C 103.914062 145.171875 103.902344 145.195312 103.882812 145.203125 C 103.746094 145.257812 103.605469 145.277344 103.460938 145.265625 C 103.34375 145.253906 103.207031 145.265625 103.046875 145.292969 C 100.898438 145.683594 98.832031 145.25 97.519531 143.425781 C 97.1875 142.972656 97.023438 142.464844 97.027344 141.90625 C 97.03125 140.90625 97.355469 140.019531 98.003906 139.238281 Z M 98.003906 139.238281 " fill-opacity="1" fill-rule="nonzero"/><path fill="#010101" d="M 122.921875 84.097656 L 122.945312 84.105469 C 123.082031 84.160156 123.144531 84.308594 123.09375 84.441406 L 122.875 84.996094 C 122.824219 85.128906 122.671875 85.195312 122.539062 85.140625 L 122.515625 85.132812 C 122.382812 85.082031 122.316406 84.929688 122.371094 84.796875 L 122.585938 84.246094 C 122.640625 84.113281 122.789062 84.046875 122.921875 84.097656 Z M 122.921875 84.097656 " fill-opacity="1" fill-rule="nonzero"/><path fill="#010101" d="M 121.484375 84.8125 C 121.535156 84.90625 121.554688 84.996094 121.539062 85.089844 C 121.523438 85.183594 121.480469 85.25 121.40625 85.289062 C 121.335938 85.328125 121.257812 85.332031 121.167969 85.292969 C 121.082031 85.257812 121.011719 85.195312 120.960938 85.101562 C 120.910156 85.011719 120.890625 84.917969 120.90625 84.824219 C 120.921875 84.730469 120.964844 84.664062 121.035156 84.625 C 121.109375 84.585938 121.1875 84.585938 121.277344 84.621094 C 121.363281 84.65625 121.433594 84.722656 121.484375 84.8125 Z M 121.484375 84.8125 " fill-opacity="1" fill-rule="nonzero"/><path fill="#010101" d="M 124.828125 88.898438 C 124.828125 88.972656 124.800781 89.03125 124.75 89.082031 C 124.699219 89.132812 124.640625 89.160156 124.566406 89.160156 C 124.496094 89.160156 124.433594 89.132812 124.382812 89.082031 C 124.332031 89.03125 124.308594 88.972656 124.308594 88.898438 C 124.308594 88.828125 124.332031 88.765625 124.382812 88.714844 C 124.433594 88.667969 124.496094 88.640625 124.566406 88.640625 C 124.640625 88.640625 124.699219 88.667969 124.75 88.714844 C 124.800781 88.765625 124.828125 88.828125 124.828125 88.898438 Z M 124.828125 88.898438 " fill-opacity="1" fill-rule="nonzero"/><path fill="#010101" d="M 125.644531 99.957031 C 125.769531 100.230469 125.882812 100.535156 125.996094 100.875 C 126.839844 103.445312 126.800781 106.007812 125.886719 108.5625 C 125.800781 108.8125 125.574219 109.296875 125.210938 110.027344 C 124.632812 111.175781 123.804688 112.179688 122.953125 113.03125 C 122.476562 113.507812 121.914062 113.953125 121.269531 114.375 C 118.128906 116.421875 114.183594 117.128906 110.5625 115.949219 C 107.511719 114.957031 105.238281 113.078125 103.738281 110.308594 C 103.648438 110.140625 103.554688 109.941406 103.453125 109.714844 C 103.351562 109.484375 103.269531 109.28125 103.207031 109.101562 C 102.160156 106.132812 102.300781 103.191406 103.621094 100.277344 C 105.183594 96.820312 108.371094 94.394531 112.003906 93.460938 C 112.75 93.269531 113.460938 93.15625 114.132812 93.128906 C 115.339844 93.074219 116.644531 93.140625 117.882812 93.488281 C 118.667969 93.710938 119.183594 93.875 119.425781 93.976562 C 121.9375 95.023438 123.859375 96.726562 125.199219 99.078125 C 125.375 99.390625 125.523438 99.683594 125.644531 99.957031 Z M 125.644531 99.957031 " fill-opacity="1" fill-rule="nonzero"/><path fill="#010101" d="M 87.691406 97.203125 L 87.703125 97.214844 C 87.8125 97.28125 87.84375 97.417969 87.773438 97.523438 L 87.355469 98.183594 C 87.289062 98.289062 87.148438 98.320312 87.042969 98.253906 L 87.03125 98.246094 C 86.925781 98.179688 86.894531 98.039062 86.960938 97.933594 L 87.378906 97.273438 C 87.445312 97.167969 87.585938 97.136719 87.691406 97.203125 Z M 87.691406 97.203125 " fill-opacity="1" fill-rule="nonzero"/><path fill="#010101" d="M 88.492188 98.632812 C 88.558594 98.671875 88.589844 98.746094 88.585938 98.855469 C 88.582031 98.960938 88.542969 99.070312 88.472656 99.179688 C 88.402344 99.289062 88.320312 99.367188 88.226562 99.414062 C 88.128906 99.464844 88.046875 99.464844 87.984375 99.425781 C 87.917969 99.382812 87.886719 99.308594 87.890625 99.203125 C 87.894531 99.09375 87.929688 98.988281 88 98.878906 C 88.070312 98.765625 88.152344 98.6875 88.25 98.640625 C 88.34375 98.59375 88.425781 98.589844 88.492188 98.632812 Z M 88.492188 98.632812 " fill-opacity="1" fill-rule="nonzero"/><path fill="#010101" d="M 133.246094 116.589844 C 133.355469 116.617188 133.441406 116.667969 133.507812 116.742188 C 133.570312 116.816406 133.59375 116.894531 133.574219 116.976562 C 133.554688 117.054688 133.5 117.117188 133.410156 117.152344 C 133.316406 117.191406 133.21875 117.199219 133.105469 117.171875 C 132.996094 117.144531 132.910156 117.097656 132.847656 117.019531 C 132.78125 116.945312 132.761719 116.867188 132.777344 116.789062 C 132.796875 116.707031 132.855469 116.648438 132.945312 116.609375 C 133.035156 116.570312 133.136719 116.566406 133.246094 116.589844 Z M 133.246094 116.589844 " fill-opacity="1" fill-rule="nonzero"/><path fill="#010101" d="M 132.699219 117.878906 L 133.136719 118.101562 C 133.265625 118.167969 133.316406 118.324219 133.25 118.449219 L 133.238281 118.472656 C 133.171875 118.597656 133.015625 118.648438 132.890625 118.585938 L 132.449219 118.359375 C 132.324219 118.292969 132.273438 118.140625 132.339844 118.011719 L 132.351562 117.988281 C 132.414062 117.863281 132.570312 117.8125 132.699219 117.878906 Z M 132.699219 117.878906 " fill-opacity="1" fill-rule="nonzero"/><path fill="#86b1c4" d="M 121.410156 111.753906 L 121.320312 111.636719 C 121.761719 111.3125 122.042969 111.066406 122.15625 110.902344 C 122.316406 110.675781 122.421875 110.542969 122.480469 110.492188 C 122.5 110.472656 122.527344 110.445312 122.558594 110.410156 L 123.070312 109.835938 L 123.066406 109.816406 L 123.207031 109.78125 L 123.214844 109.808594 C 123.226562 109.847656 123.214844 109.894531 123.1875 109.925781 L 122.667969 110.507812 C 122.632812 110.546875 122.601562 110.578125 122.574219 110.601562 C 122.542969 110.628906 122.460938 110.722656 122.277344 110.984375 C 122.152344 111.164062 121.867188 111.414062 121.410156 111.753906 Z M 123.074219 109.847656 Z M 123.078125 109.824219 C 123.078125 109.824219 123.078125 109.828125 123.078125 109.828125 Z M 123.078125 109.824219 " fill-opacity="1" fill-rule="nonzero"/><path fill="#86b1c4" d="M 112.632812 114.355469 C 112.585938 114.355469 112.542969 114.355469 112.496094 114.355469 C 111.910156 114.335938 111.371094 114.296875 110.890625 114.238281 L 110.910156 114.09375 C 111.386719 114.152344 111.921875 114.191406 112.5 114.207031 C 112.773438 114.21875 113.027344 114.199219 113.261719 114.152344 L 113.289062 114.296875 C 113.085938 114.335938 112.863281 114.355469 112.632812 114.355469 Z M 112.632812 114.355469 " fill-opacity="1" fill-rule="nonzero"/><path fill="#6d96a8" d="M 121.367188 111.695312 C 121.8125 111.363281 122.097656 111.113281 122.21875 110.945312 C 122.371094 110.726562 122.472656 110.59375 122.527344 110.546875 C 122.550781 110.527344 122.582031 110.496094 122.613281 110.457031 L 123.132812 109.875 C 123.144531 109.863281 123.148438 109.84375 123.144531 109.828125 L 123.136719 109.800781 L 123.730469 109.871094 C 123.757812 109.875 123.777344 109.898438 123.773438 109.925781 C 123.773438 109.933594 123.769531 109.9375 123.769531 109.945312 C 123.023438 111.253906 121.972656 112.308594 120.789062 113.191406 C 120.769531 113.203125 120.753906 113.210938 120.734375 113.214844 C 120.714844 113.214844 120.695312 113.203125 120.695312 113.183594 C 120.691406 113.175781 120.695312 113.167969 120.699219 113.160156 C 120.992188 112.664062 121.214844 112.175781 121.367188 111.695312 Z M 121.367188 111.695312 " fill-opacity="1" fill-rule="nonzero"/><path fill="#6d96a8" d="M 110.902344 114.167969 C 111.382812 114.226562 111.914062 114.261719 112.496094 114.28125 C 112.777344 114.289062 113.035156 114.273438 113.273438 114.226562 C 113.832031 114.632812 114.449219 114.949219 115.121094 115.171875 C 115.128906 115.175781 115.136719 115.1875 115.132812 115.199219 C 115.128906 115.207031 115.121094 115.210938 115.113281 115.214844 C 113.546875 115.3125 112.015625 115.109375 110.523438 114.601562 C 110.503906 114.59375 110.492188 114.570312 110.5 114.550781 C 110.5 114.542969 110.503906 114.539062 110.511719 114.535156 Z M 110.902344 114.167969 " fill-opacity="1" fill-rule="nonzero"/><path fill="#9ecbdf" d="M 114.058594 94.398438 C 114.074219 94.378906 114.097656 94.371094 114.136719 94.367188 C 114.589844 94.363281 115.109375 94.375 115.6875 94.410156 C 116.75 94.46875 117.789062 94.703125 118.800781 95.105469 C 118.832031 95.117188 118.84375 95.148438 118.832031 95.179688 C 118.828125 95.183594 118.828125 95.191406 118.820312 95.195312 C 118.382812 95.664062 117.871094 96.101562 117.292969 96.507812 C 117.269531 96.527344 117.234375 96.523438 117.214844 96.503906 C 116.710938 96.046875 116.152344 95.609375 115.542969 95.195312 C 115.066406 94.875 114.601562 94.667969 114.074219 94.449219 C 114.058594 94.441406 114.050781 94.421875 114.054688 94.40625 C 114.058594 94.402344 114.058594 94.398438 114.058594 94.398438 Z M 114.058594 94.398438 " fill-opacity="1" fill-rule="nonzero"/><path fill="#9ecbdf" d="M 116.402344 96.980469 C 116.433594 97.007812 116.433594 97.058594 116.402344 97.089844 C 116.398438 97.09375 116.394531 97.097656 116.386719 97.101562 C 115.371094 97.71875 114.257812 98.234375 113.042969 98.652344 C 112.988281 98.671875 112.929688 98.644531 112.914062 98.589844 L 111.679688 95.015625 C 111.671875 94.984375 111.6875 94.953125 111.714844 94.941406 C 111.722656 94.941406 111.726562 94.941406 111.730469 94.941406 C 112.273438 94.90625 112.796875 94.96875 113.292969 95.125 C 114.472656 95.492188 115.507812 96.109375 116.402344 96.980469 Z M 116.402344 96.980469 " fill-opacity="1" fill-rule="nonzero"/><path fill="#9ecbdf" d="M 112.085938 98.914062 C 112.097656 98.949219 112.082031 98.988281 112.042969 99 C 112.042969 99 112.042969 99 112.039062 99 C 110.847656 99.320312 109.542969 99.589844 108.296875 99.703125 C 108.253906 99.707031 108.214844 99.671875 108.210938 99.628906 C 108.210938 99.625 108.210938 99.617188 108.210938 99.613281 C 108.355469 98.726562 108.703125 97.777344 109.117188 97.023438 C 109.511719 96.300781 110.058594 95.71875 110.75 95.269531 C 110.78125 95.25 110.816406 95.257812 110.835938 95.285156 C 110.839844 95.289062 110.839844 95.296875 110.84375 95.300781 Z M 112.085938 98.914062 " fill-opacity="1" fill-rule="nonzero"/><path fill="#9ecbdf" d="M 124.707031 100.972656 C 124.710938 100.984375 124.707031 101 124.695312 101.003906 L 120.851562 102.265625 C 120.816406 102.277344 120.777344 102.257812 120.765625 102.222656 C 120.113281 100.367188 119.117188 98.691406 117.882812 97.210938 C 117.863281 97.191406 117.867188 97.160156 117.890625 97.140625 C 118.554688 96.652344 119.140625 96.121094 119.648438 95.546875 C 119.671875 95.523438 119.707031 95.515625 119.734375 95.53125 C 120.628906 95.96875 121.457031 96.550781 122.222656 97.273438 C 122.832031 97.851562 123.320312 98.421875 123.683594 98.988281 C 124.039062 99.546875 124.382812 100.210938 124.707031 100.972656 Z M 124.707031 100.972656 " fill-opacity="1" fill-rule="nonzero"/><path fill="#9ecbdf" d="M 108.394531 96.480469 C 108.40625 96.472656 108.421875 96.476562 108.429688 96.488281 C 108.433594 96.496094 108.433594 96.503906 108.429688 96.511719 C 108.265625 96.78125 108.117188 97.011719 108.011719 97.257812 C 107.691406 98.007812 107.464844 98.808594 107.332031 99.660156 C 107.328125 99.707031 107.285156 99.742188 107.238281 99.738281 L 105.464844 99.679688 C 105.441406 99.679688 105.425781 99.660156 105.425781 99.640625 C 105.425781 99.632812 105.429688 99.625 105.433594 99.617188 C 105.855469 98.925781 106.332031 98.320312 106.855469 97.804688 C 107.355469 97.308594 107.867188 96.867188 108.394531 96.480469 Z M 108.394531 96.480469 " fill-opacity="1" fill-rule="nonzero"/><path fill="#9ecbdf" d="M 119.945312 102.503906 C 119.953125 102.527344 119.941406 102.546875 119.921875 102.554688 L 114.953125 104.1875 C 114.910156 104.203125 114.863281 104.179688 114.851562 104.136719 L 113.277344 99.578125 C 113.265625 99.539062 113.285156 99.5 113.324219 99.484375 C 114.636719 99.050781 115.890625 98.453125 117.089844 97.699219 C 117.113281 97.683594 117.136719 97.691406 117.152344 97.707031 C 117.546875 98.199219 117.863281 98.558594 118.1875 99.050781 C 118.929688 100.1875 119.515625 101.335938 119.945312 102.503906 Z M 119.945312 102.503906 " fill-opacity="1" fill-rule="nonzero"/><path fill="#9ecbdf" d="M 114.011719 104.488281 L 108.847656 106.1875 C 108.796875 106.203125 108.746094 106.175781 108.730469 106.128906 C 108.730469 106.125 108.726562 106.125 108.726562 106.121094 C 108.378906 104.792969 108.085938 103.597656 108.058594 102.246094 C 108.046875 101.597656 108.050781 101.074219 108.070312 100.664062 C 108.074219 100.597656 108.125 100.542969 108.195312 100.539062 C 109.660156 100.453125 111.054688 100.207031 112.371094 99.800781 C 112.398438 99.792969 112.425781 99.804688 112.4375 99.832031 L 114.027344 104.453125 C 114.035156 104.46875 114.027344 104.484375 114.011719 104.488281 Z M 114.011719 104.488281 " fill-opacity="1" fill-rule="nonzero"/><path fill="#9ecbdf" d="M 104.144531 107.734375 C 104.125 107.742188 104.109375 107.730469 104.101562 107.714844 C 103.980469 107.296875 103.890625 106.867188 103.839844 106.421875 C 103.617188 104.421875 103.972656 102.265625 104.917969 100.457031 C 104.925781 100.4375 104.949219 100.425781 104.972656 100.429688 C 105.664062 100.5625 106.394531 100.621094 107.152344 100.597656 C 107.175781 100.597656 107.199219 100.613281 107.199219 100.640625 C 107.199219 100.640625 107.199219 100.640625 107.199219 100.644531 C 107.089844 102.613281 107.332031 104.550781 107.921875 106.449219 C 107.929688 106.472656 107.917969 106.492188 107.898438 106.5 Z M 104.144531 107.734375 " fill-opacity="1" fill-rule="nonzero"/><path fill="#9ecbdf" d="M 121.917969 108.910156 C 121.894531 108.910156 121.875 108.894531 121.875 108.871094 C 121.875 108.867188 121.875 108.867188 121.875 108.863281 C 121.90625 108.480469 121.910156 108.046875 121.882812 107.5625 C 121.832031 106.667969 121.699219 105.664062 121.476562 104.542969 C 121.390625 104.101562 121.265625 103.640625 121.097656 103.160156 C 121.085938 103.132812 121.101562 103.101562 121.132812 103.089844 L 124.910156 101.851562 C 124.957031 101.832031 125.011719 101.859375 125.027344 101.910156 C 125.03125 101.914062 125.03125 101.917969 125.03125 101.917969 C 125.09375 102.191406 125.164062 102.589844 125.246094 103.117188 C 125.5625 105.117188 125.171875 107.21875 124.316406 109.042969 C 124.289062 109.09375 124.230469 109.121094 124.175781 109.101562 C 123.511719 108.875 122.628906 108.882812 121.917969 108.910156 Z M 121.917969 108.910156 " fill-opacity="1" fill-rule="nonzero"/><path fill="#9ecbdf" d="M 120.984375 108.9375 C 120.984375 108.964844 120.964844 108.984375 120.9375 108.988281 C 119.589844 109.105469 118.261719 109.394531 116.957031 109.855469 C 116.90625 109.875 116.851562 109.847656 116.832031 109.796875 L 115.210938 105.09375 C 115.199219 105.0625 115.214844 105.027344 115.25 105.015625 L 120.195312 103.390625 C 120.222656 103.382812 120.25 103.398438 120.257812 103.421875 C 120.625 104.695312 120.910156 105.867188 120.96875 107.140625 C 121 107.785156 121.003906 108.386719 120.984375 108.9375 Z M 120.984375 108.9375 " fill-opacity="1" fill-rule="nonzero"/><path fill="#9ecbdf" d="M 116.019531 110.128906 C 116.027344 110.152344 116.015625 110.183594 115.988281 110.191406 C 114.707031 110.660156 113.457031 111.28125 112.234375 112.054688 C 112.191406 112.082031 112.132812 112.074219 112.097656 112.035156 C 111.613281 111.535156 111.175781 110.992188 110.785156 110.402344 C 110.316406 109.695312 110.023438 109.214844 109.902344 108.964844 C 109.722656 108.585938 109.453125 107.988281 109.09375 107.175781 C 109.066406 107.113281 109.09375 107.042969 109.15625 107.011719 C 109.160156 107.011719 109.164062 107.011719 109.167969 107.007812 L 114.292969 105.324219 C 114.328125 105.3125 114.363281 105.332031 114.375 105.363281 Z M 116.019531 110.128906 " fill-opacity="1" fill-rule="nonzero"/><path fill="#9ecbdf" d="M 104.386719 108.609375 C 104.378906 108.59375 104.390625 108.574219 104.40625 108.570312 L 108.179688 107.328125 C 108.207031 107.316406 108.242188 107.332031 108.25 107.363281 C 108.355469 107.65625 108.5 108.019531 108.683594 108.449219 C 108.894531 108.949219 109.191406 109.4375 109.460938 109.9375 C 109.972656 110.878906 110.609375 111.730469 111.363281 112.574219 C 111.390625 112.601562 111.390625 112.648438 111.359375 112.675781 C 111.355469 112.679688 111.355469 112.679688 111.351562 112.679688 C 110.730469 113.128906 110.171875 113.621094 109.675781 114.160156 C 109.640625 114.195312 109.585938 114.207031 109.542969 114.183594 C 107.777344 113.339844 106.359375 112.101562 105.292969 110.46875 C 104.929688 109.914062 104.628906 109.296875 104.386719 108.609375 Z M 104.386719 108.609375 " fill-opacity="1" fill-rule="nonzero"/><path fill="#9ecbdf" d="M 123.136719 109.800781 L 123.144531 109.828125 C 123.148438 109.84375 123.144531 109.863281 123.132812 109.875 L 122.613281 110.457031 C 122.582031 110.496094 122.550781 110.527344 122.527344 110.546875 C 122.472656 110.59375 122.371094 110.726562 122.21875 110.945312 C 122.097656 111.113281 121.8125 111.363281 121.367188 111.695312 L 121.796875 109.839844 C 121.800781 109.8125 121.824219 109.792969 121.851562 109.792969 Z M 123.136719 109.800781 " fill-opacity="1" fill-rule="nonzero"/><path fill="#9ecbdf" d="M 120.832031 109.847656 C 120.855469 109.847656 120.875 109.863281 120.878906 109.886719 C 120.878906 109.890625 120.878906 109.894531 120.878906 109.898438 C 120.820312 110.417969 120.667969 110.960938 120.492188 111.46875 C 120.085938 112.660156 119.511719 113.617188 118.496094 114.261719 C 118.460938 114.285156 118.414062 114.277344 118.390625 114.242188 C 118.386719 114.234375 118.386719 114.230469 118.382812 114.226562 L 117.179688 110.730469 C 117.167969 110.695312 117.183594 110.660156 117.21875 110.648438 C 118.382812 110.285156 119.585938 110.019531 120.832031 109.847656 Z M 120.832031 109.847656 " fill-opacity="1" fill-rule="nonzero"/><path fill="#9ecbdf" d="M 117.570312 114.546875 C 117.578125 114.5625 117.566406 114.585938 117.550781 114.589844 C 117.546875 114.589844 117.546875 114.589844 117.542969 114.59375 C 116.894531 114.65625 116.3125 114.617188 115.792969 114.472656 C 115.351562 114.347656 114.832031 114.117188 114.238281 113.78125 C 113.734375 113.5 113.277344 113.167969 112.863281 112.785156 C 112.839844 112.761719 112.839844 112.726562 112.863281 112.703125 C 112.867188 112.699219 112.871094 112.695312 112.875 112.691406 C 113.933594 112.035156 115.070312 111.476562 116.285156 111.019531 C 116.320312 111.007812 116.355469 111.023438 116.367188 111.058594 C 116.367188 111.058594 116.367188 111.058594 116.371094 111.058594 Z M 117.570312 114.546875 " fill-opacity="1" fill-rule="nonzero"/><path fill="#9ecbdf" d="M 113.273438 114.226562 C 113.035156 114.273438 112.777344 114.289062 112.496094 114.28125 C 111.914062 114.261719 111.382812 114.226562 110.902344 114.167969 L 111.992188 113.269531 C 112.011719 113.253906 112.039062 113.253906 112.058594 113.269531 Z M 113.273438 114.226562 " fill-opacity="1" fill-rule="nonzero"/></svg>