<svg xmlns="http://www.w3.org/2000/svg" xmlns:xlink="http://www.w3.org/1999/xlink" width="300" zoomAndPan="magnify" viewBox="0 0 224.87999 225" height="300" preserveAspectRatio="xMidYMid meet" version="1.0"><defs><g/><clipPath id="40aa93f6c2"><rect x="0" width="44" y="0" height="30"/></clipPath></defs><g transform="matrix(1, 0, 0, 1, 91, 116)"><g clip-path="url(#40aa93f6c2)"><g fill="#ffffff" fill-opacity="1"><g transform="translate(1.690362, 19.707128)"><g><path d="M 11.390625 -5.15625 C 11.429688 -5.164062 11.460938 -5.175781 11.484375 -5.1875 C 11.503906 -5.195312 11.523438 -5.203125 11.546875 -5.203125 C 11.585938 -5.203125 11.640625 -5.148438 11.703125 -5.046875 C 11.691406 -4.960938 11.671875 -4.875 11.640625 -4.78125 C 11.609375 -4.695312 11.566406 -4.601562 11.515625 -4.5 C 11.503906 -4.445312 11.484375 -4.394531 11.453125 -4.34375 C 11.429688 -4.289062 11.410156 -4.234375 11.390625 -4.171875 C 11.390625 -4.171875 11.382812 -4.164062 11.375 -4.15625 C 11.375 -4.144531 11.375 -4.132812 11.375 -4.125 C 11.320312 -4.039062 11.257812 -3.925781 11.1875 -3.78125 C 11.125 -3.644531 11.046875 -3.507812 10.953125 -3.375 C 10.816406 -3.09375 10.671875 -2.835938 10.515625 -2.609375 L 9.625 -1.375 C 9.445312 -1.101562 9.242188 -0.847656 9.015625 -0.609375 C 8.796875 -0.367188 8.570312 -0.140625 8.34375 0.078125 L 8.0625 0.34375 C 7.976562 0.40625 7.894531 0.457031 7.8125 0.5 L 7.625 0.6875 C 7.59375 0.726562 7.554688 0.757812 7.515625 0.78125 C 7.484375 0.800781 7.457031 0.820312 7.4375 0.84375 L 7.109375 1.03125 C 6.910156 1.144531 6.695312 1.238281 6.46875 1.3125 C 6.238281 1.382812 6.015625 1.453125 5.796875 1.515625 C 5.671875 1.523438 5.554688 1.539062 5.453125 1.5625 C 5.347656 1.59375 5.242188 1.625 5.140625 1.65625 C 5.085938 1.664062 5.023438 1.671875 4.953125 1.671875 C 4.890625 1.679688 4.828125 1.6875 4.765625 1.6875 L 4.375 1.6875 C 4.175781 1.6875 3.910156 1.65625 3.578125 1.59375 C 3.253906 1.539062 3.003906 1.472656 2.828125 1.390625 C 2.703125 1.359375 2.628906 1.335938 2.609375 1.328125 L 2.578125 1.296875 L 2.546875 1.296875 L 2.296875 1.125 C 2.234375 1.101562 2.203125 1.082031 2.203125 1.0625 C 2.148438 1.019531 2.09375 0.984375 2.03125 0.953125 C 1.976562 0.921875 1.914062 0.882812 1.84375 0.84375 C 1.726562 0.789062 1.617188 0.722656 1.515625 0.640625 L 1.484375 0.640625 C 1.378906 0.578125 1.300781 0.507812 1.25 0.4375 L 1.234375 0.40625 C 1.148438 0.332031 1.066406 0.25 0.984375 0.15625 C 0.898438 0.0703125 0.820312 -0.0078125 0.75 -0.09375 C 0.613281 -0.238281 0.492188 -0.414062 0.390625 -0.625 L 0.390625 -0.65625 C 0.390625 -0.664062 0.394531 -0.664062 0.40625 -0.65625 L 0.4375 -0.65625 C 0.4375 -0.664062 0.421875 -0.691406 0.390625 -0.734375 C 0.367188 -0.785156 0.351562 -0.816406 0.34375 -0.828125 L 0.34375 -1 C 0.34375 -1.007812 0.335938 -1.015625 0.328125 -1.015625 C 0.316406 -1.023438 0.3125 -1.03125 0.3125 -1.03125 L 0.3125 -1.046875 C 0.300781 -1.046875 0.296875 -1.050781 0.296875 -1.0625 C 0.296875 -1.0625 0.289062 -1.054688 0.28125 -1.046875 L 0.28125 -1.03125 L 0.25 -1.0625 C 0.226562 -1.050781 0.222656 -1.039062 0.234375 -1.03125 C 0.242188 -1.019531 0.25 -1.007812 0.25 -1 L 0.09375 -1.28125 C 0.0390625 -1.351562 0 -1.460938 -0.03125 -1.609375 C -0.0820312 -1.742188 -0.125 -1.882812 -0.15625 -2.03125 C -0.1875 -2.1875 -0.21875 -2.34375 -0.25 -2.5 C -0.257812 -2.644531 -0.265625 -2.796875 -0.265625 -2.953125 C -0.273438 -3.109375 -0.28125 -3.269531 -0.28125 -3.4375 C -0.28125 -3.5 -0.269531 -3.578125 -0.25 -3.671875 C -0.226562 -4.097656 -0.160156 -4.503906 -0.046875 -4.890625 C 0.0664062 -5.285156 0.226562 -5.664062 0.4375 -6.03125 C 0.539062 -6.21875 0.675781 -6.382812 0.84375 -6.53125 C 1.007812 -6.675781 1.164062 -6.8125 1.3125 -6.9375 C 2.226562 -7.738281 3.289062 -8.207031 4.5 -8.34375 C 4.46875 -8.394531 4.378906 -8.46875 4.234375 -8.5625 C 4.085938 -8.65625 3.960938 -8.78125 3.859375 -8.9375 C 3.703125 -9.101562 3.546875 -9.335938 3.390625 -9.640625 C 3.234375 -9.953125 3.140625 -10.234375 3.109375 -10.484375 C 3.109375 -10.535156 3.117188 -10.578125 3.140625 -10.609375 C 3.140625 -10.628906 3.125 -10.648438 3.09375 -10.671875 C 3.070312 -10.691406 3.0625 -10.707031 3.0625 -10.71875 C 3.0625 -10.738281 3.054688 -10.75 3.046875 -10.75 C 3.046875 -10.757812 3.046875 -10.773438 3.046875 -10.796875 L 3.046875 -10.8125 C 3.046875 -10.832031 3.035156 -10.847656 3.015625 -10.859375 C 3.003906 -10.941406 3 -11 3 -11.03125 C 3.007812 -11.070312 3.03125 -11.132812 3.0625 -11.21875 C 3.125 -11.695312 3.234375 -12.160156 3.390625 -12.609375 L 3.453125 -12.734375 L 3.390625 -12.765625 L 3.515625 -12.875 C 3.535156 -12.96875 3.566406 -13.066406 3.609375 -13.171875 C 3.648438 -13.285156 3.691406 -13.394531 3.734375 -13.5 C 3.859375 -13.75 4.050781 -14 4.3125 -14.25 C 4.570312 -14.5 4.863281 -14.71875 5.1875 -14.90625 C 5.507812 -15.101562 5.804688 -15.238281 6.078125 -15.3125 C 6.179688 -15.320312 6.273438 -15.332031 6.359375 -15.34375 C 6.453125 -15.363281 6.546875 -15.375 6.640625 -15.375 L 6.46875 -15.890625 L 6.453125 -16.03125 C 6.390625 -16.46875 6.414062 -16.875 6.53125 -17.25 C 6.644531 -17.625 6.832031 -17.925781 7.09375 -18.15625 C 7.351562 -18.394531 7.675781 -18.515625 8.0625 -18.515625 C 8.125 -18.515625 8.191406 -18.507812 8.265625 -18.5 C 8.335938 -18.5 8.40625 -18.492188 8.46875 -18.484375 C 8.675781 -18.484375 8.914062 -18.425781 9.1875 -18.3125 C 9.457031 -18.195312 9.617188 -18.023438 9.671875 -17.796875 C 9.648438 -17.742188 9.632812 -17.691406 9.625 -17.640625 C 9.613281 -17.585938 9.585938 -17.5625 9.546875 -17.5625 C 9.523438 -17.5625 9.484375 -17.582031 9.421875 -17.625 C 9.359375 -17.675781 9.328125 -17.734375 9.328125 -17.796875 L 9.3125 -17.8125 C 9.21875 -17.8125 9.117188 -17.800781 9.015625 -17.78125 C 8.910156 -17.757812 8.789062 -17.71875 8.65625 -17.65625 C 8.238281 -17.570312 7.921875 -17.316406 7.703125 -16.890625 C 7.492188 -16.472656 7.414062 -16.007812 7.46875 -15.5 C 7.519531 -15.507812 7.566406 -15.515625 7.609375 -15.515625 C 7.648438 -15.523438 7.695312 -15.53125 7.75 -15.53125 L 7.8125 -15.53125 C 7.851562 -15.519531 7.898438 -15.515625 7.953125 -15.515625 C 8.003906 -15.515625 8.054688 -15.515625 8.109375 -15.515625 C 8.171875 -15.578125 8.242188 -15.625 8.328125 -15.65625 C 8.421875 -15.6875 8.503906 -15.726562 8.578125 -15.78125 C 8.597656 -15.789062 8.613281 -15.796875 8.625 -15.796875 C 8.644531 -15.796875 8.660156 -15.800781 8.671875 -15.8125 C 8.929688 -15.8125 9.207031 -15.78125 9.5 -15.71875 C 9.800781 -15.65625 10.050781 -15.523438 10.25 -15.328125 L 10.46875 -15.15625 C 10.53125 -15.09375 10.585938 -15.03125 10.640625 -14.96875 C 10.691406 -14.90625 10.734375 -14.84375 10.765625 -14.78125 C 10.828125 -14.71875 10.875 -14.648438 10.90625 -14.578125 C 10.9375 -14.515625 10.960938 -14.453125 10.984375 -14.390625 C 11.085938 -14.148438 11.128906 -13.925781 11.109375 -13.71875 C 11.097656 -13.507812 10.972656 -13.335938 10.734375 -13.203125 C 10.492188 -13.066406 10.273438 -13 10.078125 -13 L 10 -13 C 9.988281 -13 9.972656 -13 9.953125 -13 C 9.929688 -13.007812 9.910156 -13.015625 9.890625 -13.015625 L 9.796875 -13.015625 C 9.742188 -13.015625 9.65625 -13.023438 9.53125 -13.046875 C 9.414062 -13.066406 9.320312 -13.097656 9.25 -13.140625 C 8.976562 -13.203125 8.738281 -13.289062 8.53125 -13.40625 C 8.320312 -13.53125 8.09375 -13.691406 7.84375 -13.890625 C 7.800781 -13.890625 7.769531 -13.882812 7.75 -13.875 C 7.726562 -13.875 7.703125 -13.863281 7.671875 -13.84375 C 7.453125 -13.8125 7.257812 -13.734375 7.09375 -13.609375 C 6.914062 -13.503906 6.757812 -13.382812 6.625 -13.25 C 6.488281 -13.125 6.363281 -12.976562 6.25 -12.8125 C 6.132812 -12.613281 6.046875 -12.421875 5.984375 -12.234375 C 5.953125 -12.046875 5.9375 -11.867188 5.9375 -11.703125 L 5.90625 -11.671875 C 5.875 -11.609375 5.835938 -11.503906 5.796875 -11.359375 C 5.765625 -11.210938 5.75 -11.101562 5.75 -11.03125 C 5.726562 -11.019531 5.710938 -10.96875 5.703125 -10.875 C 5.691406 -10.78125 5.6875 -10.734375 5.6875 -10.734375 L 5.703125 -10.734375 L 5.703125 -10.671875 C 5.703125 -10.515625 5.71875 -10.363281 5.75 -10.21875 C 5.78125 -10.070312 5.816406 -9.9375 5.859375 -9.8125 L 6.03125 -9.515625 C 6.09375 -9.398438 6.191406 -9.296875 6.328125 -9.203125 C 6.460938 -9.109375 6.59375 -9.0625 6.71875 -9.0625 C 6.78125 -9.0625 6.835938 -9.054688 6.890625 -9.046875 C 6.941406 -9.035156 6.988281 -9.019531 7.03125 -9 L 7.125 -8.953125 L 7.828125 -8.75 C 8.035156 -8.695312 8.191406 -8.640625 8.296875 -8.578125 C 8.304688 -8.515625 8.3125 -8.4375 8.3125 -8.34375 C 8.3125 -8.257812 8.273438 -8.179688 8.203125 -8.109375 C 8.046875 -7.984375 7.84375 -7.894531 7.59375 -7.84375 L 7.109375 -7.75 C 7.054688 -7.738281 7.003906 -7.726562 6.953125 -7.71875 C 6.898438 -7.71875 6.84375 -7.703125 6.78125 -7.671875 C 6.601562 -7.660156 6.414062 -7.625 6.21875 -7.5625 C 6.132812 -7.550781 6.054688 -7.53125 5.984375 -7.5 C 5.921875 -7.46875 5.847656 -7.4375 5.765625 -7.40625 C 5.460938 -7.21875 5.132812 -6.992188 4.78125 -6.734375 C 4.4375 -6.472656 4.15625 -6.195312 3.9375 -5.90625 C 3.789062 -5.78125 3.65625 -5.628906 3.53125 -5.453125 C 3.289062 -5.109375 3.101562 -4.722656 2.96875 -4.296875 C 2.832031 -3.878906 2.765625 -3.453125 2.765625 -3.015625 C 2.742188 -2.816406 2.738281 -2.613281 2.75 -2.40625 C 2.757812 -2.207031 2.785156 -2.003906 2.828125 -1.796875 C 2.921875 -1.390625 3.0625 -1.03125 3.25 -0.71875 C 3.445312 -0.40625 3.703125 -0.101562 4.015625 0.1875 C 4.222656 0.332031 4.414062 0.414062 4.59375 0.4375 C 4.632812 0.445312 4.675781 0.453125 4.71875 0.453125 C 4.757812 0.453125 4.804688 0.453125 4.859375 0.453125 C 4.878906 0.453125 4.910156 0.453125 4.953125 0.453125 C 4.992188 0.453125 5.03125 0.445312 5.0625 0.4375 L 5.40625 0.4375 C 5.476562 0.4375 5.554688 0.429688 5.640625 0.421875 C 5.722656 0.410156 5.796875 0.394531 5.859375 0.375 C 6.179688 0.289062 6.476562 0.171875 6.75 0.015625 C 7.363281 -0.191406 7.914062 -0.5 8.40625 -0.90625 C 8.46875 -0.976562 8.53125 -1.0625 8.59375 -1.15625 C 8.664062 -1.25 8.726562 -1.332031 8.78125 -1.40625 C 8.882812 -1.519531 8.976562 -1.617188 9.0625 -1.703125 C 9.144531 -1.796875 9.234375 -1.90625 9.328125 -2.03125 C 9.515625 -2.207031 9.734375 -2.46875 9.984375 -2.8125 C 10.234375 -3.164062 10.445312 -3.5 10.625 -3.8125 C 10.644531 -3.84375 10.707031 -3.953125 10.8125 -4.140625 C 10.925781 -4.328125 11.03125 -4.515625 11.125 -4.703125 C 11.226562 -4.890625 11.28125 -5 11.28125 -5.03125 C 11.300781 -5.082031 11.316406 -5.113281 11.328125 -5.125 C 11.347656 -5.144531 11.367188 -5.15625 11.390625 -5.15625 Z M 9.546875 -14.546875 C 9.523438 -14.554688 9.472656 -14.5625 9.390625 -14.5625 C 9.210938 -14.5625 8.992188 -14.523438 8.734375 -14.453125 C 8.472656 -14.378906 8.289062 -14.332031 8.1875 -14.3125 L 8.75 -13.84375 C 8.8125 -13.832031 8.90625 -13.773438 9.03125 -13.671875 C 9.164062 -13.566406 9.257812 -13.519531 9.3125 -13.53125 C 9.375 -13.53125 9.425781 -13.523438 9.46875 -13.515625 C 9.507812 -13.515625 9.554688 -13.492188 9.609375 -13.453125 C 9.742188 -13.484375 9.828125 -13.578125 9.859375 -13.734375 C 9.890625 -13.859375 9.898438 -13.96875 9.890625 -14.0625 C 9.890625 -14.132812 9.867188 -14.207031 9.828125 -14.28125 C 9.765625 -14.363281 9.671875 -14.453125 9.546875 -14.546875 Z M 9.546875 -14.546875 "/></g></g></g><g fill="#ffffff" fill-opacity="1"><g transform="translate(11.934612, 19.707128)"><g><path d="M 4.734375 -8.390625 C 4.765625 -8.390625 4.851562 -8.296875 5 -8.109375 C 5.144531 -7.921875 5.242188 -7.648438 5.296875 -7.296875 C 5.316406 -7.023438 5.300781 -6.816406 5.25 -6.671875 C 5.195312 -6.523438 5.140625 -6.394531 5.078125 -6.28125 C 5.035156 -6.195312 4.988281 -6.101562 4.9375 -6 C 4.894531 -5.894531 4.878906 -5.734375 4.890625 -5.515625 C 4.910156 -5.410156 4.878906 -5.347656 4.796875 -5.328125 C 4.722656 -5.316406 4.644531 -5.3125 4.5625 -5.3125 C 4.375 -5.3125 4.21875 -5.367188 4.09375 -5.484375 C 3.96875 -5.609375 3.867188 -5.75 3.796875 -5.90625 C 3.734375 -6.070312 3.679688 -6.207031 3.640625 -6.3125 L 3.515625 -6.046875 L 3.4375 -5.78125 C 3.382812 -5.695312 3.328125 -5.597656 3.265625 -5.484375 C 3.210938 -5.378906 3.15625 -5.257812 3.09375 -5.125 L 2.578125 -3.984375 C 2.453125 -3.703125 2.351562 -3.398438 2.28125 -3.078125 C 2.207031 -2.753906 2.179688 -2.414062 2.203125 -2.0625 C 2.234375 -1.707031 2.320312 -1.378906 2.46875 -1.078125 C 2.625 -0.773438 2.851562 -0.625 3.15625 -0.625 C 3.226562 -0.625 3.300781 -0.65625 3.375 -0.71875 C 3.425781 -0.6875 3.476562 -0.671875 3.53125 -0.671875 C 3.726562 -0.671875 3.960938 -0.800781 4.234375 -1.0625 C 4.515625 -1.332031 4.800781 -1.660156 5.09375 -2.046875 C 5.394531 -2.429688 5.675781 -2.804688 5.9375 -3.171875 L 6.140625 -3.453125 C 6.234375 -3.578125 6.316406 -3.707031 6.390625 -3.84375 C 6.472656 -3.976562 6.550781 -4.117188 6.625 -4.265625 C 6.769531 -4.546875 6.929688 -4.8125 7.109375 -5.0625 C 7.285156 -5.3125 7.4375 -5.4375 7.5625 -5.4375 C 7.695312 -5.4375 7.78125 -5.367188 7.8125 -5.234375 C 7.8125 -5.171875 7.722656 -4.953125 7.546875 -4.578125 C 7.378906 -4.210938 7.078125 -3.75 6.640625 -3.1875 L 6.640625 -3.203125 L 6.46875 -2.90625 C 6.425781 -2.84375 6.378906 -2.78125 6.328125 -2.71875 C 6.273438 -2.664062 6.226562 -2.609375 6.1875 -2.546875 L 5.96875 -2.234375 L 5.78125 -2.015625 C 5.644531 -1.847656 5.53125 -1.691406 5.4375 -1.546875 C 5.34375 -1.398438 5.242188 -1.238281 5.140625 -1.0625 C 4.722656 -0.601562 4.332031 -0.285156 3.96875 -0.109375 C 3.601562 0.0664062 3.25 0.15625 2.90625 0.15625 C 2.394531 0.101562 1.921875 -0.0546875 1.484375 -0.328125 C 1.054688 -0.597656 0.707031 -0.953125 0.4375 -1.390625 C 0.164062 -1.835938 0.0078125 -2.335938 -0.03125 -2.890625 C -0.0507812 -3.117188 -0.0390625 -3.40625 0 -3.75 C 0.0507812 -4.101562 0.125 -4.421875 0.21875 -4.703125 C 0.457031 -5.335938 0.769531 -5.9375 1.15625 -6.5 C 1.550781 -7.0625 1.957031 -7.519531 2.375 -7.875 C 2.800781 -8.226562 3.191406 -8.40625 3.546875 -8.40625 C 3.753906 -8.40625 3.910156 -8.363281 4.015625 -8.28125 C 4.128906 -8.195312 4.195312 -8.125 4.21875 -8.0625 L 4.421875 -8.203125 C 4.472656 -8.234375 4.507812 -8.257812 4.53125 -8.28125 C 4.550781 -8.300781 4.617188 -8.335938 4.734375 -8.390625 Z M 4.734375 -8.390625 "/></g></g></g><g fill="#ffffff" fill-opacity="1"><g transform="translate(17.901041, 19.707128)"><g><path d="M 5.234375 -1.125 L 5.046875 -0.859375 C 5.035156 -0.828125 4.988281 -0.789062 4.90625 -0.75 C 4.832031 -0.707031 4.785156 -0.640625 4.765625 -0.546875 C 4.753906 -0.535156 4.75 -0.519531 4.75 -0.5 C 4.75 -0.488281 4.75 -0.484375 4.75 -0.484375 C 4.695312 -0.390625 4.601562 -0.28125 4.46875 -0.15625 C 4.332031 -0.03125 4.203125 0.0625 4.078125 0.125 C 4.035156 0.15625 3.992188 0.179688 3.953125 0.203125 C 3.921875 0.234375 3.890625 0.257812 3.859375 0.28125 C 3.773438 0.34375 3.695312 0.394531 3.625 0.4375 C 3.550781 0.476562 3.453125 0.515625 3.328125 0.546875 C 3.203125 0.597656 3.082031 0.628906 2.96875 0.640625 C 2.851562 0.648438 2.726562 0.65625 2.59375 0.65625 L 2.390625 0.65625 L 1.859375 0.40625 C 1.804688 0.40625 1.742188 0.398438 1.671875 0.390625 C 1.609375 0.378906 1.550781 0.367188 1.5 0.359375 C 1.070312 0.140625 0.71875 -0.140625 0.4375 -0.484375 C 0.164062 -0.835938 0.015625 -1.257812 -0.015625 -1.75 C -0.015625 -1.882812 -0.0078125 -2.070312 0 -2.3125 C 0 -2.550781 0.0078125 -2.785156 0.03125 -3.015625 C 0.0625 -3.253906 0.0820312 -3.4375 0.09375 -3.5625 C 0.113281 -4.039062 0.269531 -4.53125 0.5625 -5.03125 C 0.851562 -5.539062 1.164062 -5.96875 1.5 -6.3125 L 1.5 -6.28125 C 1.632812 -6.445312 1.785156 -6.59375 1.953125 -6.71875 C 2.117188 -6.84375 2.285156 -6.957031 2.453125 -7.0625 L 2.578125 -7.109375 C 2.742188 -7.222656 2.929688 -7.316406 3.140625 -7.390625 C 3.359375 -7.460938 3.566406 -7.5 3.765625 -7.5 C 3.972656 -7.5 4.171875 -7.460938 4.359375 -7.390625 L 4.40625 -7.359375 C 4.769531 -7.171875 5.109375 -6.96875 5.421875 -6.75 C 5.742188 -6.53125 5.898438 -6.226562 5.890625 -5.84375 C 5.921875 -5.789062 5.90625 -5.734375 5.84375 -5.671875 C 5.789062 -5.617188 5.679688 -5.59375 5.515625 -5.59375 C 5.492188 -5.59375 5.46875 -5.59375 5.4375 -5.59375 C 5.40625 -5.601562 5.375 -5.609375 5.34375 -5.609375 C 5.144531 -5.597656 4.898438 -5.53125 4.609375 -5.40625 C 4.328125 -5.28125 4.046875 -5.125 3.765625 -4.9375 C 3.484375 -4.757812 3.257812 -4.578125 3.09375 -4.390625 C 2.957031 -4.203125 2.828125 -4 2.703125 -3.78125 C 2.578125 -3.5625 2.472656 -3.332031 2.390625 -3.09375 C 2.359375 -3.03125 2.328125 -2.90625 2.296875 -2.71875 C 2.273438 -2.53125 2.253906 -2.347656 2.234375 -2.171875 L 2.171875 -1.84375 L 2.171875 -1.765625 C 2.140625 -1.597656 2.109375 -1.4375 2.078125 -1.28125 C 2.054688 -1.132812 2.046875 -1.007812 2.046875 -0.90625 C 2.046875 -0.78125 2.082031 -0.628906 2.15625 -0.453125 C 2.226562 -0.285156 2.3125 -0.191406 2.40625 -0.171875 C 2.550781 -0.0976562 2.71875 -0.0625 2.90625 -0.0625 C 3.125 -0.0625 3.300781 -0.0859375 3.4375 -0.140625 C 3.582031 -0.191406 3.71875 -0.296875 3.84375 -0.453125 C 3.882812 -0.503906 3.921875 -0.550781 3.953125 -0.59375 C 3.984375 -0.644531 4.023438 -0.6875 4.078125 -0.71875 C 4.242188 -0.851562 4.382812 -1.007812 4.5 -1.1875 C 4.613281 -1.375 4.679688 -1.519531 4.703125 -1.625 C 4.535156 -1.738281 4.363281 -1.957031 4.1875 -2.28125 C 4.019531 -2.601562 3.910156 -2.929688 3.859375 -3.265625 C 3.921875 -3.710938 3.992188 -4.023438 4.078125 -4.203125 C 4.160156 -4.378906 4.253906 -4.484375 4.359375 -4.515625 C 4.460938 -4.554688 4.570312 -4.578125 4.6875 -4.578125 C 4.820312 -4.578125 4.976562 -4.539062 5.15625 -4.46875 C 5.332031 -4.40625 5.441406 -4.28125 5.484375 -4.09375 L 5.546875 -4.09375 C 5.585938 -4.050781 5.609375 -3.972656 5.609375 -3.859375 C 5.640625 -3.816406 5.65625 -3.765625 5.65625 -3.703125 C 5.664062 -3.648438 5.664062 -3.570312 5.65625 -3.46875 C 5.65625 -3.46875 5.664062 -3.457031 5.6875 -3.4375 L 5.75 -3.359375 C 5.8125 -3.285156 5.832031 -3.21875 5.8125 -3.15625 C 5.800781 -3.101562 5.785156 -3.039062 5.765625 -2.96875 L 5.71875 -2.8125 L 5.78125 -2.40625 C 5.78125 -2.363281 5.738281 -2.265625 5.65625 -2.109375 C 5.570312 -1.953125 5.5 -1.8125 5.4375 -1.6875 L 5.53125 -1.6875 C 5.570312 -1.675781 5.609375 -1.671875 5.640625 -1.671875 C 5.671875 -1.671875 5.691406 -1.671875 5.703125 -1.671875 C 5.898438 -1.671875 6.113281 -1.773438 6.34375 -1.984375 C 6.582031 -2.191406 6.800781 -2.421875 7 -2.671875 C 7.207031 -2.921875 7.367188 -3.117188 7.484375 -3.265625 C 7.515625 -3.316406 7.53125 -3.335938 7.53125 -3.328125 C 7.59375 -3.398438 7.644531 -3.476562 7.6875 -3.5625 C 7.738281 -3.65625 7.789062 -3.742188 7.84375 -3.828125 C 8.019531 -4.128906 8.203125 -4.429688 8.390625 -4.734375 C 8.453125 -4.765625 8.515625 -4.78125 8.578125 -4.78125 C 8.660156 -4.78125 8.726562 -4.742188 8.78125 -4.671875 C 8.832031 -4.609375 8.8125 -4.503906 8.71875 -4.359375 C 8.632812 -4.085938 8.476562 -3.769531 8.25 -3.40625 C 8.03125 -3.039062 7.769531 -2.675781 7.46875 -2.3125 C 7.164062 -1.957031 6.851562 -1.660156 6.53125 -1.421875 C 6.207031 -1.179688 5.894531 -1.0625 5.59375 -1.0625 C 5.53125 -1.0625 5.46875 -1.066406 5.40625 -1.078125 C 5.351562 -1.085938 5.296875 -1.101562 5.234375 -1.125 Z M 4.75 -3.765625 C 4.75 -3.785156 4.726562 -3.773438 4.6875 -3.734375 C 4.6875 -3.734375 4.675781 -3.679688 4.65625 -3.578125 C 4.664062 -3.554688 4.664062 -3.523438 4.65625 -3.484375 C 4.644531 -3.441406 4.628906 -3.398438 4.609375 -3.359375 C 4.597656 -3.304688 4.59375 -3.21875 4.59375 -3.09375 C 4.59375 -2.976562 4.640625 -2.785156 4.734375 -2.515625 L 4.734375 -2.390625 L 4.96875 -2.125 L 5.140625 -2.578125 C 5.148438 -2.617188 5.164062 -2.65625 5.1875 -2.6875 C 5.21875 -2.71875 5.234375 -2.753906 5.234375 -2.796875 C 5.234375 -2.804688 5.234375 -2.8125 5.234375 -2.8125 C 5.242188 -2.820312 5.25 -2.835938 5.25 -2.859375 L 5.15625 -3.265625 C 5.132812 -3.429688 5.0625 -3.578125 4.9375 -3.703125 C 4.925781 -3.710938 4.898438 -3.722656 4.859375 -3.734375 C 4.816406 -3.753906 4.78125 -3.765625 4.75 -3.765625 Z M 4.75 -3.765625 "/></g></g></g><g fill="#ffffff" fill-opacity="1"><g transform="translate(25.31217, 19.707128)"><g><path d="M 5.890625 -5.109375 L 5.8125 -4.921875 C 5.707031 -4.617188 5.539062 -4.265625 5.3125 -3.859375 C 5.09375 -3.453125 4.851562 -3.046875 4.59375 -2.640625 C 4.601562 -2.660156 4.59375 -2.644531 4.5625 -2.59375 C 4.53125 -2.550781 4.503906 -2.519531 4.484375 -2.5 C 4.359375 -2.3125 4.21875 -2.109375 4.0625 -1.890625 C 3.914062 -1.671875 3.765625 -1.484375 3.609375 -1.328125 C 3.460938 -1.171875 3.328125 -1.09375 3.203125 -1.09375 C 3.191406 -1.09375 3.179688 -1.09375 3.171875 -1.09375 C 3.160156 -1.101562 3.148438 -1.109375 3.140625 -1.109375 C 2.929688 -0.984375 2.753906 -0.882812 2.609375 -0.8125 C 2.460938 -0.75 2.3125 -0.71875 2.15625 -0.71875 C 1.726562 -0.75 1.382812 -0.925781 1.125 -1.25 C 0.875 -1.582031 0.695312 -1.96875 0.59375 -2.40625 C 0.488281 -2.84375 0.4375 -3.242188 0.4375 -3.609375 C 0.4375 -4.304688 0.53125 -5.066406 0.71875 -5.890625 C 0.71875 -5.992188 0.726562 -6.207031 0.75 -6.53125 C 0.769531 -6.863281 0.804688 -7.226562 0.859375 -7.625 C 0.921875 -8.019531 0.976562 -8.347656 1.03125 -8.609375 C 1.03125 -8.847656 1.054688 -9.09375 1.109375 -9.34375 C 1.160156 -9.601562 1.207031 -9.835938 1.25 -10.046875 C 1.300781 -10.234375 1.347656 -10.421875 1.390625 -10.609375 C 1.441406 -10.804688 1.472656 -11.007812 1.484375 -11.21875 C 1.484375 -11.226562 1.488281 -11.285156 1.5 -11.390625 C 1.519531 -11.503906 1.550781 -11.628906 1.59375 -11.765625 L 1.53125 -11.890625 C 1.53125 -11.953125 1.539062 -11.992188 1.5625 -12.015625 C 1.601562 -12.429688 1.648438 -12.867188 1.703125 -13.328125 C 1.765625 -13.785156 1.847656 -14.171875 1.953125 -14.484375 C 2.054688 -14.804688 2.179688 -14.96875 2.328125 -14.96875 C 2.460938 -14.96875 2.671875 -14.890625 2.953125 -14.734375 C 3.234375 -14.578125 3.460938 -14.335938 3.640625 -14.015625 C 3.816406 -13.929688 3.992188 -13.769531 4.171875 -13.53125 C 4.359375 -13.300781 4.472656 -13.03125 4.515625 -12.71875 C 4.554688 -12.519531 4.523438 -12.238281 4.421875 -11.875 C 4.328125 -11.507812 4.210938 -11.117188 4.078125 -10.703125 L 4.078125 -10.640625 C 4.085938 -10.585938 4.09375 -10.53125 4.09375 -10.46875 C 4.101562 -10.414062 4.109375 -10.359375 4.109375 -10.296875 L 3.609375 -8.578125 C 3.628906 -8.421875 3.644531 -8.238281 3.65625 -8.03125 C 3.664062 -7.832031 3.679688 -7.671875 3.703125 -7.546875 C 3.710938 -7.492188 3.71875 -7.445312 3.71875 -7.40625 C 3.71875 -7.363281 3.71875 -7.34375 3.71875 -7.34375 L 3.171875 -5.6875 C 3.171875 -5.625 3.175781 -5.570312 3.1875 -5.53125 L 3.1875 -5.5 L 3.234375 -5.296875 C 3.242188 -5.265625 3.25 -5.226562 3.25 -5.1875 C 3.25 -5.144531 3.25 -5.097656 3.25 -5.046875 C 3.25 -4.992188 3.25 -4.941406 3.25 -4.890625 C 3.257812 -4.847656 3.269531 -4.800781 3.28125 -4.75 C 3.195312 -4.507812 3.117188 -4.273438 3.046875 -4.046875 C 2.984375 -3.828125 2.921875 -3.609375 2.859375 -3.390625 L 2.953125 -2.78125 C 2.785156 -2.332031 2.710938 -1.992188 2.734375 -1.765625 C 2.765625 -1.671875 2.8125 -1.625 2.875 -1.625 C 2.945312 -1.625 3.070312 -1.710938 3.25 -1.890625 C 3.425781 -2.078125 3.625 -2.316406 3.84375 -2.609375 C 4.0625 -2.910156 4.28125 -3.234375 4.5 -3.578125 C 4.726562 -3.921875 4.921875 -4.257812 5.078125 -4.59375 L 5.0625 -4.59375 C 5.09375 -4.632812 5.109375 -4.671875 5.109375 -4.703125 C 5.117188 -4.742188 5.128906 -4.773438 5.140625 -4.796875 L 5.203125 -5.03125 L 5.203125 -5.015625 C 5.222656 -5.054688 5.257812 -5.125 5.3125 -5.21875 C 5.363281 -5.3125 5.410156 -5.414062 5.453125 -5.53125 C 5.546875 -5.707031 5.628906 -5.867188 5.703125 -6.015625 C 5.773438 -6.171875 5.835938 -6.25 5.890625 -6.25 L 5.9375 -6.25 C 6 -6.3125 6.066406 -6.34375 6.140625 -6.34375 C 6.222656 -6.34375 6.285156 -6.300781 6.328125 -6.21875 C 6.328125 -6.164062 6.300781 -6.0625 6.25 -5.90625 C 6.207031 -5.757812 6.082031 -5.492188 5.875 -5.109375 Z M 5.890625 -5.109375 "/></g></g></g><g fill="#ffffff" fill-opacity="1"><g transform="translate(29.533702, 19.707128)"><g><path d="M 5.890625 -5.109375 L 5.8125 -4.921875 C 5.707031 -4.617188 5.539062 -4.265625 5.3125 -3.859375 C 5.09375 -3.453125 4.851562 -3.046875 4.59375 -2.640625 C 4.601562 -2.660156 4.59375 -2.644531 4.5625 -2.59375 C 4.53125 -2.550781 4.503906 -2.519531 4.484375 -2.5 C 4.359375 -2.3125 4.21875 -2.109375 4.0625 -1.890625 C 3.914062 -1.671875 3.765625 -1.484375 3.609375 -1.328125 C 3.460938 -1.171875 3.328125 -1.09375 3.203125 -1.09375 C 3.191406 -1.09375 3.179688 -1.09375 3.171875 -1.09375 C 3.160156 -1.101562 3.148438 -1.109375 3.140625 -1.109375 C 2.929688 -0.984375 2.753906 -0.882812 2.609375 -0.8125 C 2.460938 -0.75 2.3125 -0.71875 2.15625 -0.71875 C 1.726562 -0.75 1.382812 -0.925781 1.125 -1.25 C 0.875 -1.582031 0.695312 -1.96875 0.59375 -2.40625 C 0.488281 -2.84375 0.4375 -3.242188 0.4375 -3.609375 C 0.4375 -4.304688 0.53125 -5.066406 0.71875 -5.890625 C 0.71875 -5.992188 0.726562 -6.207031 0.75 -6.53125 C 0.769531 -6.863281 0.804688 -7.226562 0.859375 -7.625 C 0.921875 -8.019531 0.976562 -8.347656 1.03125 -8.609375 C 1.03125 -8.847656 1.054688 -9.09375 1.109375 -9.34375 C 1.160156 -9.601562 1.207031 -9.835938 1.25 -10.046875 C 1.300781 -10.234375 1.347656 -10.421875 1.390625 -10.609375 C 1.441406 -10.804688 1.472656 -11.007812 1.484375 -11.21875 C 1.484375 -11.226562 1.488281 -11.285156 1.5 -11.390625 C 1.519531 -11.503906 1.550781 -11.628906 1.59375 -11.765625 L 1.53125 -11.890625 C 1.53125 -11.953125 1.539062 -11.992188 1.5625 -12.015625 C 1.601562 -12.429688 1.648438 -12.867188 1.703125 -13.328125 C 1.765625 -13.785156 1.847656 -14.171875 1.953125 -14.484375 C 2.054688 -14.804688 2.179688 -14.96875 2.328125 -14.96875 C 2.460938 -14.96875 2.671875 -14.890625 2.953125 -14.734375 C 3.234375 -14.578125 3.460938 -14.335938 3.640625 -14.015625 C 3.816406 -13.929688 3.992188 -13.769531 4.171875 -13.53125 C 4.359375 -13.300781 4.472656 -13.03125 4.515625 -12.71875 C 4.554688 -12.519531 4.523438 -12.238281 4.421875 -11.875 C 4.328125 -11.507812 4.210938 -11.117188 4.078125 -10.703125 L 4.078125 -10.640625 C 4.085938 -10.585938 4.09375 -10.53125 4.09375 -10.46875 C 4.101562 -10.414062 4.109375 -10.359375 4.109375 -10.296875 L 3.609375 -8.578125 C 3.628906 -8.421875 3.644531 -8.238281 3.65625 -8.03125 C 3.664062 -7.832031 3.679688 -7.671875 3.703125 -7.546875 C 3.710938 -7.492188 3.71875 -7.445312 3.71875 -7.40625 C 3.71875 -7.363281 3.71875 -7.34375 3.71875 -7.34375 L 3.171875 -5.6875 C 3.171875 -5.625 3.175781 -5.570312 3.1875 -5.53125 L 3.1875 -5.5 L 3.234375 -5.296875 C 3.242188 -5.265625 3.25 -5.226562 3.25 -5.1875 C 3.25 -5.144531 3.25 -5.097656 3.25 -5.046875 C 3.25 -4.992188 3.25 -4.941406 3.25 -4.890625 C 3.257812 -4.847656 3.269531 -4.800781 3.28125 -4.75 C 3.195312 -4.507812 3.117188 -4.273438 3.046875 -4.046875 C 2.984375 -3.828125 2.921875 -3.609375 2.859375 -3.390625 L 2.953125 -2.78125 C 2.785156 -2.332031 2.710938 -1.992188 2.734375 -1.765625 C 2.765625 -1.671875 2.8125 -1.625 2.875 -1.625 C 2.945312 -1.625 3.070312 -1.710938 3.25 -1.890625 C 3.425781 -2.078125 3.625 -2.316406 3.84375 -2.609375 C 4.0625 -2.910156 4.28125 -3.234375 4.5 -3.578125 C 4.726562 -3.921875 4.921875 -4.257812 5.078125 -4.59375 L 5.0625 -4.59375 C 5.09375 -4.632812 5.109375 -4.671875 5.109375 -4.703125 C 5.117188 -4.742188 5.128906 -4.773438 5.140625 -4.796875 L 5.203125 -5.03125 L 5.203125 -5.015625 C 5.222656 -5.054688 5.257812 -5.125 5.3125 -5.21875 C 5.363281 -5.3125 5.410156 -5.414062 5.453125 -5.53125 C 5.546875 -5.707031 5.628906 -5.867188 5.703125 -6.015625 C 5.773438 -6.171875 5.835938 -6.25 5.890625 -6.25 L 5.9375 -6.25 C 6 -6.3125 6.066406 -6.34375 6.140625 -6.34375 C 6.222656 -6.34375 6.285156 -6.300781 6.328125 -6.21875 C 6.328125 -6.164062 6.300781 -6.0625 6.25 -5.90625 C 6.207031 -5.757812 6.082031 -5.492188 5.875 -5.109375 Z M 5.890625 -5.109375 "/></g></g></g><g fill="#ffffff" fill-opacity="1"><g transform="translate(33.755233, 19.707128)"><g><path d="M 5.234375 -1.125 L 5.046875 -0.859375 C 5.035156 -0.828125 4.988281 -0.789062 4.90625 -0.75 C 4.832031 -0.707031 4.785156 -0.640625 4.765625 -0.546875 C 4.753906 -0.535156 4.75 -0.519531 4.75 -0.5 C 4.75 -0.488281 4.75 -0.484375 4.75 -0.484375 C 4.695312 -0.390625 4.601562 -0.28125 4.46875 -0.15625 C 4.332031 -0.03125 4.203125 0.0625 4.078125 0.125 C 4.035156 0.15625 3.992188 0.179688 3.953125 0.203125 C 3.921875 0.234375 3.890625 0.257812 3.859375 0.28125 C 3.773438 0.34375 3.695312 0.394531 3.625 0.4375 C 3.550781 0.476562 3.453125 0.515625 3.328125 0.546875 C 3.203125 0.597656 3.082031 0.628906 2.96875 0.640625 C 2.851562 0.648438 2.726562 0.65625 2.59375 0.65625 L 2.390625 0.65625 L 1.859375 0.40625 C 1.804688 0.40625 1.742188 0.398438 1.671875 0.390625 C 1.609375 0.378906 1.550781 0.367188 1.5 0.359375 C 1.070312 0.140625 0.71875 -0.140625 0.4375 -0.484375 C 0.164062 -0.835938 0.015625 -1.257812 -0.015625 -1.75 C -0.015625 -1.882812 -0.0078125 -2.070312 0 -2.3125 C 0 -2.550781 0.0078125 -2.785156 0.03125 -3.015625 C 0.0625 -3.253906 0.0820312 -3.4375 0.09375 -3.5625 C 0.113281 -4.039062 0.269531 -4.53125 0.5625 -5.03125 C 0.851562 -5.539062 1.164062 -5.96875 1.5 -6.3125 L 1.5 -6.28125 C 1.632812 -6.445312 1.785156 -6.59375 1.953125 -6.71875 C 2.117188 -6.84375 2.285156 -6.957031 2.453125 -7.0625 L 2.578125 -7.109375 C 2.742188 -7.222656 2.929688 -7.316406 3.140625 -7.390625 C 3.359375 -7.460938 3.566406 -7.5 3.765625 -7.5 C 3.972656 -7.5 4.171875 -7.460938 4.359375 -7.390625 L 4.40625 -7.359375 C 4.769531 -7.171875 5.109375 -6.96875 5.421875 -6.75 C 5.742188 -6.53125 5.898438 -6.226562 5.890625 -5.84375 C 5.921875 -5.789062 5.90625 -5.734375 5.84375 -5.671875 C 5.789062 -5.617188 5.679688 -5.59375 5.515625 -5.59375 C 5.492188 -5.59375 5.46875 -5.59375 5.4375 -5.59375 C 5.40625 -5.601562 5.375 -5.609375 5.34375 -5.609375 C 5.144531 -5.597656 4.898438 -5.53125 4.609375 -5.40625 C 4.328125 -5.28125 4.046875 -5.125 3.765625 -4.9375 C 3.484375 -4.757812 3.257812 -4.578125 3.09375 -4.390625 C 2.957031 -4.203125 2.828125 -4 2.703125 -3.78125 C 2.578125 -3.5625 2.472656 -3.332031 2.390625 -3.09375 C 2.359375 -3.03125 2.328125 -2.90625 2.296875 -2.71875 C 2.273438 -2.53125 2.253906 -2.347656 2.234375 -2.171875 L 2.171875 -1.84375 L 2.171875 -1.765625 C 2.140625 -1.597656 2.109375 -1.4375 2.078125 -1.28125 C 2.054688 -1.132812 2.046875 -1.007812 2.046875 -0.90625 C 2.046875 -0.78125 2.082031 -0.628906 2.15625 -0.453125 C 2.226562 -0.285156 2.3125 -0.191406 2.40625 -0.171875 C 2.550781 -0.0976562 2.71875 -0.0625 2.90625 -0.0625 C 3.125 -0.0625 3.300781 -0.0859375 3.4375 -0.140625 C 3.582031 -0.191406 3.71875 -0.296875 3.84375 -0.453125 C 3.882812 -0.503906 3.921875 -0.550781 3.953125 -0.59375 C 3.984375 -0.644531 4.023438 -0.6875 4.078125 -0.71875 C 4.242188 -0.851562 4.382812 -1.007812 4.5 -1.1875 C 4.613281 -1.375 4.679688 -1.519531 4.703125 -1.625 C 4.535156 -1.738281 4.363281 -1.957031 4.1875 -2.28125 C 4.019531 -2.601562 3.910156 -2.929688 3.859375 -3.265625 C 3.921875 -3.710938 3.992188 -4.023438 4.078125 -4.203125 C 4.160156 -4.378906 4.253906 -4.484375 4.359375 -4.515625 C 4.460938 -4.554688 4.570312 -4.578125 4.6875 -4.578125 C 4.820312 -4.578125 4.976562 -4.539062 5.15625 -4.46875 C 5.332031 -4.40625 5.441406 -4.28125 5.484375 -4.09375 L 5.546875 -4.09375 C 5.585938 -4.050781 5.609375 -3.972656 5.609375 -3.859375 C 5.640625 -3.816406 5.65625 -3.765625 5.65625 -3.703125 C 5.664062 -3.648438 5.664062 -3.570312 5.65625 -3.46875 C 5.65625 -3.46875 5.664062 -3.457031 5.6875 -3.4375 L 5.75 -3.359375 C 5.8125 -3.285156 5.832031 -3.21875 5.8125 -3.15625 C 5.800781 -3.101562 5.785156 -3.039062 5.765625 -2.96875 L 5.71875 -2.8125 L 5.78125 -2.40625 C 5.78125 -2.363281 5.738281 -2.265625 5.65625 -2.109375 C 5.570312 -1.953125 5.5 -1.8125 5.4375 -1.6875 L 5.53125 -1.6875 C 5.570312 -1.675781 5.609375 -1.671875 5.640625 -1.671875 C 5.671875 -1.671875 5.691406 -1.671875 5.703125 -1.671875 C 5.898438 -1.671875 6.113281 -1.773438 6.34375 -1.984375 C 6.582031 -2.191406 6.800781 -2.421875 7 -2.671875 C 7.207031 -2.921875 7.367188 -3.117188 7.484375 -3.265625 C 7.515625 -3.316406 7.53125 -3.335938 7.53125 -3.328125 C 7.59375 -3.398438 7.644531 -3.476562 7.6875 -3.5625 C 7.738281 -3.65625 7.789062 -3.742188 7.84375 -3.828125 C 8.019531 -4.128906 8.203125 -4.429688 8.390625 -4.734375 C 8.453125 -4.765625 8.515625 -4.78125 8.578125 -4.78125 C 8.660156 -4.78125 8.726562 -4.742188 8.78125 -4.671875 C 8.832031 -4.609375 8.8125 -4.503906 8.71875 -4.359375 C 8.632812 -4.085938 8.476562 -3.769531 8.25 -3.40625 C 8.03125 -3.039062 7.769531 -2.675781 7.46875 -2.3125 C 7.164062 -1.957031 6.851562 -1.660156 6.53125 -1.421875 C 6.207031 -1.179688 5.894531 -1.0625 5.59375 -1.0625 C 5.53125 -1.0625 5.46875 -1.066406 5.40625 -1.078125 C 5.351562 -1.085938 5.296875 -1.101562 5.234375 -1.125 Z M 4.75 -3.765625 C 4.75 -3.785156 4.726562 -3.773438 4.6875 -3.734375 C 4.6875 -3.734375 4.675781 -3.679688 4.65625 -3.578125 C 4.664062 -3.554688 4.664062 -3.523438 4.65625 -3.484375 C 4.644531 -3.441406 4.628906 -3.398438 4.609375 -3.359375 C 4.597656 -3.304688 4.59375 -3.21875 4.59375 -3.09375 C 4.59375 -2.976562 4.640625 -2.785156 4.734375 -2.515625 L 4.734375 -2.390625 L 4.96875 -2.125 L 5.140625 -2.578125 C 5.148438 -2.617188 5.164062 -2.65625 5.1875 -2.6875 C 5.21875 -2.71875 5.234375 -2.753906 5.234375 -2.796875 C 5.234375 -2.804688 5.234375 -2.8125 5.234375 -2.8125 C 5.242188 -2.820312 5.25 -2.835938 5.25 -2.859375 L 5.15625 -3.265625 C 5.132812 -3.429688 5.0625 -3.578125 4.9375 -3.703125 C 4.925781 -3.710938 4.898438 -3.722656 4.859375 -3.734375 C 4.816406 -3.753906 4.78125 -3.765625 4.75 -3.765625 Z M 4.75 -3.765625 "/></g></g></g></g></g><path stroke-linecap="butt" transform="matrix(0.7496, 0.000000000000000089, -0.000000000000000089, 0.7496, 22.487998, 112.500005)" fill="none" stroke-linejoin="miter" d="M 2.251579 1.500793 L 237.752199 1.500793 " stroke="#5c7c31" stroke-width="3" stroke-opacity="1" stroke-miterlimit="4"/><path stroke-linecap="round" transform="matrix(0.7496, 0.000000000000000089, -0.000000000000000089, 0.7496, 22.487998, 112.500005)" fill="none" stroke-linejoin="round" d="M 1.501178 -3.001608 L 1.501178 5.997984 " stroke="#5c7c31" stroke-width="3" stroke-opacity="1" stroke-miterlimit="4"/><path stroke-linecap="round" transform="matrix(0.7496, 0.000000000000000089, -0.000000000000000089, 0.7496, 22.487998, 112.500005)" fill="none" stroke-linejoin="round" d="M 238.5026 -3.001608 L 238.5026 5.997984 " stroke="#5c7c31" stroke-width="3" stroke-opacity="1" stroke-miterlimit="4"/></svg>