<svg xmlns="http://www.w3.org/2000/svg" xmlns:xlink="http://www.w3.org/1999/xlink" width="300" zoomAndPan="magnify" viewBox="0 0 224.87999 225" height="300" preserveAspectRatio="xMidYMid meet" version="1.0"><defs><clipPath id="a6ad13bc9d"><path d="M 80.074219 80.132812 L 144.539062 80.132812 L 144.539062 144.601562 L 80.074219 144.601562 Z M 80.074219 80.132812 " clip-rule="nonzero"/></clipPath></defs><g clip-path="url(#a6ad13bc9d)"><path fill="#99b66f" d="M 125.679688 83 L 125.679688 82.988281 C 121.523438 81.101562 117.070312 80.148438 112.4375 80.148438 C 94.59375 80.148438 80.085938 94.65625 80.085938 112.496094 C 80.085938 117.332031 81.136719 121.976562 83.191406 126.300781 C 82.5 126.875 82.042969 127.722656 82.042969 128.6875 C 82.042969 130.382812 83.429688 131.769531 85.125 131.769531 C 85.542969 131.769531 85.949219 131.675781 86.308594 131.53125 C 92.398438 139.867188 102.117188 144.847656 112.4375 144.847656 C 130.277344 144.847656 144.785156 130.335938 144.785156 112.496094 C 144.785156 107.097656 143.425781 101.75 140.84375 97.019531 C 137.464844 90.859375 132.078125 85.867188 125.679688 83 Z M 133.585938 101.664062 C 135.207031 104.816406 136.09375 108.328125 136.175781 111.898438 L 129.992188 111.898438 C 129.90625 109.367188 129.273438 106.882812 128.140625 104.625 Z M 124.890625 132.703125 C 121.320312 134.921875 117.25 136.128906 113.035156 136.234375 L 113.035156 130.039062 C 122.253906 129.726562 129.667969 122.3125 129.976562 113.09375 L 136.175781 113.09375 C 136.019531 119.027344 133.703125 124.59375 129.585938 128.890625 C 129.046875 128.390625 128.332031 128.09375 127.542969 128.09375 C 125.847656 128.09375 124.460938 129.464844 124.460938 131.171875 C 124.460938 131.734375 124.617188 132.246094 124.890625 132.703125 Z M 113.035156 128.84375 L 113.035156 121.621094 C 117.605469 121.332031 121.273438 117.667969 121.558594 113.09375 L 128.785156 113.09375 C 128.472656 121.65625 121.59375 128.535156 113.035156 128.84375 Z M 127.101562 105.199219 C 128.140625 107.265625 128.699219 109.570312 128.785156 111.898438 L 121.558594 111.898438 C 121.488281 110.765625 121.203125 109.667969 120.734375 108.652344 Z M 113.035156 81.351562 C 117.082031 81.4375 120.972656 82.261719 124.640625 83.835938 L 122.097656 89.507812 C 119.21875 88.277344 116.1875 87.621094 113.035156 87.550781 Z M 113.035156 88.757812 C 116.007812 88.839844 118.898438 89.4375 121.605469 90.582031 L 119.074219 96.242188 C 117.152344 95.457031 115.136719 95.015625 113.035156 94.953125 Z M 113.035156 96.136719 C 114.96875 96.207031 116.832031 96.589844 118.597656 97.320312 L 115.625 103.921875 C 114.800781 103.613281 113.929688 103.421875 113.035156 103.371094 Z M 111.839844 81.351562 L 111.839844 87.5625 C 106.777344 87.683594 101.953125 89.304688 97.832031 92.292969 C 97.292969 91.847656 96.625 91.574219 95.875 91.574219 C 94.175781 91.574219 92.792969 92.949219 92.792969 94.65625 C 92.792969 95.3125 93.007812 95.921875 93.367188 96.433594 C 89.710938 100.78125 87.644531 106.226562 87.503906 111.898438 L 81.292969 111.898438 C 81.613281 95.191406 95.132812 81.675781 111.839844 81.351562 Z M 94.894531 111.898438 L 88.695312 111.898438 C 88.839844 106.539062 90.785156 101.378906 94.238281 97.246094 C 94.714844 97.546875 95.277344 97.722656 95.875 97.722656 C 97.570312 97.722656 98.953125 96.351562 98.953125 94.65625 C 98.953125 94.128906 98.8125 93.652344 98.585938 93.222656 C 102.488281 90.40625 107.050781 88.875 111.839844 88.757812 L 111.839844 94.953125 C 102.621094 95.265625 95.203125 102.679688 94.894531 111.898438 Z M 111.839844 96.148438 L 111.839844 103.371094 C 107.265625 103.660156 103.597656 107.324219 103.3125 111.898438 L 96.089844 111.898438 C 96.398438 103.335938 103.277344 96.457031 111.839844 96.148438 Z M 111.839844 143.628906 C 102.140625 143.449219 93.054688 138.707031 87.300781 130.863281 C 87.859375 130.300781 88.207031 129.535156 88.207031 128.6875 C 88.207031 126.980469 86.820312 125.609375 85.125 125.609375 C 84.816406 125.609375 84.527344 125.667969 84.253906 125.75 C 82.367188 121.773438 81.375 117.523438 81.292969 113.09375 L 87.515625 113.09375 C 87.824219 126.371094 98.558594 137.109375 111.839844 137.417969 Z M 111.839844 136.222656 C 99.21875 135.914062 89.019531 125.714844 88.707031 113.09375 L 94.882812 113.09375 C 94.988281 116.378906 95.992188 119.507812 97.820312 122.230469 C 97.28125 122.777344 96.960938 123.53125 96.960938 124.355469 C 96.960938 126.050781 98.332031 127.421875 100.027344 127.421875 C 100.816406 127.421875 101.523438 127.125 102.058594 126.648438 C 104.914062 128.761719 108.269531 129.929688 111.839844 130.050781 Z M 111.839844 128.855469 C 108.53125 128.738281 105.425781 127.660156 102.789062 125.703125 C 102.992188 125.296875 103.109375 124.84375 103.109375 124.355469 C 103.109375 122.648438 101.738281 121.273438 100.027344 121.273438 C 99.585938 121.273438 99.167969 121.367188 98.785156 121.535156 C 97.113281 119.027344 96.183594 116.125 96.078125 113.09375 L 103.3125 113.09375 C 103.597656 117.667969 107.265625 121.332031 111.839844 121.621094 Z M 104.472656 112.496094 C 104.472656 108.101562 108.042969 104.53125 112.4375 104.53125 C 113.378906 104.53125 114.289062 104.6875 115.148438 104.996094 L 111.886719 112.246094 C 111.792969 112.484375 111.839844 112.757812 112.03125 112.9375 C 112.113281 113.007812 112.222656 113.058594 112.328125 113.070312 C 112.351562 113.082031 112.363281 113.082031 112.386719 113.082031 C 112.398438 113.082031 112.425781 113.09375 112.4375 113.09375 C 112.53125 113.09375 112.628906 113.070312 112.722656 113.023438 L 119.695312 109.222656 C 120.164062 110.238281 120.402344 111.363281 120.402344 112.496094 C 120.402344 116.890625 116.832031 120.460938 112.4375 120.460938 C 108.042969 120.460938 104.472656 116.890625 104.472656 112.496094 Z M 113.035156 143.640625 L 113.035156 137.429688 C 117.535156 137.324219 121.894531 136.007812 125.691406 133.621094 C 126.203125 134.003906 126.835938 134.242188 127.542969 134.242188 C 129.238281 134.242188 130.625 132.867188 130.625 131.171875 C 130.625 130.695312 130.503906 130.253906 130.3125 129.859375 C 134.730469 125.320312 137.214844 119.410156 137.371094 113.09375 L 143.578125 113.09375 C 143.257812 129.800781 129.738281 143.316406 113.035156 143.640625 Z M 137.371094 111.898438 C 137.285156 108.136719 136.332031 104.421875 134.613281 101.09375 L 140.082031 98.117188 C 142.289062 102.371094 143.484375 107.109375 143.566406 111.898438 Z M 137.371094 111.898438 " fill-opacity="1" fill-rule="nonzero"/></g></svg>